<?xml version="1.0" encoding="utf-8"?>
<svg xmlns="http://www.w3.org/2000/svg" xmlns:xlink="http://www.w3.org/1999/xlink" width="600" height="400" viewBox="0 0 2400 1600">
<defs>
  <clipPath id="clip800">
    <rect x="0" y="0" width="2400" height="1600"/>
  </clipPath>
</defs>
<path clip-path="url(#clip800)" d="
M0 1600 L2400 1600 L2400 0 L0 0  Z
  " fill="#ffffff" fill-rule="evenodd" fill-opacity="1"/>
<defs>
  <clipPath id="clip801">
    <rect x="480" y="0" width="1681" height="1600"/>
  </clipPath>
</defs>
<path clip-path="url(#clip800)" d="
M238.13 623.18 L2352.76 623.18 L2352.76 123.472 L238.13 123.472  Z
  " fill="#ffffff" fill-rule="evenodd" fill-opacity="1"/>
<defs>
  <clipPath id="clip802">
    <rect x="238" y="123" width="2116" height="501"/>
  </clipPath>
</defs>
<polyline clip-path="url(#clip802)" style="stroke:#000000; stroke-width:2; stroke-opacity:0.1; fill:none" points="
  291.646,623.18 291.646,123.472 
  "/>
<polyline clip-path="url(#clip802)" style="stroke:#000000; stroke-width:2; stroke-opacity:0.1; fill:none" points="
  691.921,623.18 691.921,123.472 
  "/>
<polyline clip-path="url(#clip802)" style="stroke:#000000; stroke-width:2; stroke-opacity:0.1; fill:none" points="
  1092.2,623.18 1092.2,123.472 
  "/>
<polyline clip-path="url(#clip802)" style="stroke:#000000; stroke-width:2; stroke-opacity:0.1; fill:none" points="
  1492.47,623.18 1492.47,123.472 
  "/>
<polyline clip-path="url(#clip802)" style="stroke:#000000; stroke-width:2; stroke-opacity:0.1; fill:none" points="
  1892.75,623.18 1892.75,123.472 
  "/>
<polyline clip-path="url(#clip802)" style="stroke:#000000; stroke-width:2; stroke-opacity:0.1; fill:none" points="
  2293.02,623.18 2293.02,123.472 
  "/>
<polyline clip-path="url(#clip802)" style="stroke:#000000; stroke-width:2; stroke-opacity:0.1; fill:none" points="
  238.13,623.18 2352.76,623.18 
  "/>
<polyline clip-path="url(#clip802)" style="stroke:#000000; stroke-width:2; stroke-opacity:0.1; fill:none" points="
  238.13,499.393 2352.76,499.393 
  "/>
<polyline clip-path="url(#clip802)" style="stroke:#000000; stroke-width:2; stroke-opacity:0.1; fill:none" points="
  238.13,375.606 2352.76,375.606 
  "/>
<polyline clip-path="url(#clip802)" style="stroke:#000000; stroke-width:2; stroke-opacity:0.1; fill:none" points="
  238.13,251.819 2352.76,251.819 
  "/>
<polyline clip-path="url(#clip802)" style="stroke:#000000; stroke-width:2; stroke-opacity:0.1; fill:none" points="
  238.13,128.032 2352.76,128.032 
  "/>
<polyline clip-path="url(#clip800)" style="stroke:#000000; stroke-width:4; stroke-opacity:1; fill:none" points="
  238.13,623.18 2352.76,623.18 
  "/>
<polyline clip-path="url(#clip800)" style="stroke:#000000; stroke-width:4; stroke-opacity:1; fill:none" points="
  238.13,623.18 238.13,123.472 
  "/>
<polyline clip-path="url(#clip800)" style="stroke:#000000; stroke-width:4; stroke-opacity:1; fill:none" points="
  291.646,623.18 291.646,617.183 
  "/>
<polyline clip-path="url(#clip800)" style="stroke:#000000; stroke-width:4; stroke-opacity:1; fill:none" points="
  691.921,623.18 691.921,617.183 
  "/>
<polyline clip-path="url(#clip800)" style="stroke:#000000; stroke-width:4; stroke-opacity:1; fill:none" points="
  1092.2,623.18 1092.2,617.183 
  "/>
<polyline clip-path="url(#clip800)" style="stroke:#000000; stroke-width:4; stroke-opacity:1; fill:none" points="
  1492.47,623.18 1492.47,617.183 
  "/>
<polyline clip-path="url(#clip800)" style="stroke:#000000; stroke-width:4; stroke-opacity:1; fill:none" points="
  1892.75,623.18 1892.75,617.183 
  "/>
<polyline clip-path="url(#clip800)" style="stroke:#000000; stroke-width:4; stroke-opacity:1; fill:none" points="
  2293.02,623.18 2293.02,617.183 
  "/>
<polyline clip-path="url(#clip800)" style="stroke:#000000; stroke-width:4; stroke-opacity:1; fill:none" points="
  238.13,623.18 263.506,623.18 
  "/>
<polyline clip-path="url(#clip800)" style="stroke:#000000; stroke-width:4; stroke-opacity:1; fill:none" points="
  238.13,499.393 263.506,499.393 
  "/>
<polyline clip-path="url(#clip800)" style="stroke:#000000; stroke-width:4; stroke-opacity:1; fill:none" points="
  238.13,375.606 263.506,375.606 
  "/>
<polyline clip-path="url(#clip800)" style="stroke:#000000; stroke-width:4; stroke-opacity:1; fill:none" points="
  238.13,251.819 263.506,251.819 
  "/>
<polyline clip-path="url(#clip800)" style="stroke:#000000; stroke-width:4; stroke-opacity:1; fill:none" points="
  238.13,128.032 263.506,128.032 
  "/>
<path clip-path="url(#clip800)" d="M 0 0 M272.7 661.768 L285.176 661.768 L285.176 665.564 L272.7 665.564 L272.7 661.768 Z" fill="#000000" fill-rule="evenodd" fill-opacity="1" /><path clip-path="url(#clip800)" d="M 0 0 M294.273 672.717 L310.593 672.717 L310.593 676.652 L288.649 676.652 L288.649 672.717 Q291.311 669.962 295.894 665.332 Q300.5 660.68 301.681 659.337 Q303.926 656.814 304.806 655.078 Q305.709 653.319 305.709 651.629 Q305.709 648.874 303.764 647.138 Q301.843 645.402 298.741 645.402 Q296.542 645.402 294.088 646.166 Q291.658 646.93 288.88 648.481 L288.88 643.759 Q291.704 642.624 294.158 642.046 Q296.611 641.467 298.648 641.467 Q304.019 641.467 307.213 644.152 Q310.408 646.837 310.408 651.328 Q310.408 653.458 309.597 655.379 Q308.81 657.277 306.704 659.87 Q306.125 660.541 303.023 663.758 Q299.922 666.953 294.273 672.717 Z" fill="#000000" fill-rule="evenodd" fill-opacity="1" /><path clip-path="url(#clip800)" d="M 0 0 M672.79 661.768 L685.266 661.768 L685.266 665.564 L672.79 665.564 L672.79 661.768 Z" fill="#000000" fill-rule="evenodd" fill-opacity="1" /><path clip-path="url(#clip800)" d="M 0 0 M691.146 672.717 L698.785 672.717 L698.785 646.351 L690.475 648.018 L690.475 643.759 L698.739 642.092 L703.414 642.092 L703.414 672.717 L711.053 672.717 L711.053 676.652 L691.146 676.652 L691.146 672.717 Z" fill="#000000" fill-rule="evenodd" fill-opacity="1" /><path clip-path="url(#clip800)" d="M 0 0 M1092.2 645.171 Q1088.59 645.171 1086.76 648.735 Q1084.95 652.277 1084.95 659.407 Q1084.95 666.513 1086.76 670.078 Q1088.59 673.619 1092.2 673.619 Q1095.83 673.619 1097.64 670.078 Q1099.47 666.513 1099.47 659.407 Q1099.47 652.277 1097.64 648.735 Q1095.83 645.171 1092.2 645.171 M1092.2 641.467 Q1098.01 641.467 1101.06 646.073 Q1104.14 650.657 1104.14 659.407 Q1104.14 668.133 1101.06 672.74 Q1098.01 677.323 1092.2 677.323 Q1086.39 677.323 1083.31 672.74 Q1080.25 668.133 1080.25 659.407 Q1080.25 650.657 1083.31 646.073 Q1086.39 641.467 1092.2 641.467 Z" fill="#000000" fill-rule="evenodd" fill-opacity="1" /><path clip-path="url(#clip800)" d="M 0 0 M1482.85 672.717 L1490.49 672.717 L1490.49 646.351 L1482.18 648.018 L1482.18 643.759 L1490.45 642.092 L1495.12 642.092 L1495.12 672.717 L1502.76 672.717 L1502.76 676.652 L1482.85 676.652 L1482.85 672.717 Z" fill="#000000" fill-rule="evenodd" fill-opacity="1" /><path clip-path="url(#clip800)" d="M 0 0 M1887.4 672.717 L1903.72 672.717 L1903.72 676.652 L1881.78 676.652 L1881.78 672.717 Q1884.44 669.962 1889.02 665.332 Q1893.63 660.68 1894.81 659.337 Q1897.05 656.814 1897.93 655.078 Q1898.84 653.319 1898.84 651.629 Q1898.84 648.874 1896.89 647.138 Q1894.97 645.402 1891.87 645.402 Q1889.67 645.402 1887.21 646.166 Q1884.78 646.93 1882.01 648.481 L1882.01 643.759 Q1884.83 642.624 1887.28 642.046 Q1889.74 641.467 1891.78 641.467 Q1897.15 641.467 1900.34 644.152 Q1903.53 646.837 1903.53 651.328 Q1903.53 653.458 1902.72 655.379 Q1901.94 657.277 1899.83 659.87 Q1899.25 660.541 1896.15 663.758 Q1893.05 666.953 1887.4 672.717 Z" fill="#000000" fill-rule="evenodd" fill-opacity="1" /><path clip-path="url(#clip800)" d="M 0 0 M2297.27 658.018 Q2300.63 658.735 2302.5 661.004 Q2304.4 663.272 2304.4 666.606 Q2304.4 671.721 2300.88 674.522 Q2297.36 677.323 2290.88 677.323 Q2288.71 677.323 2286.39 676.883 Q2284.1 676.467 2281.65 675.61 L2281.65 671.096 Q2283.59 672.231 2285.9 672.809 Q2288.22 673.388 2290.74 673.388 Q2295.14 673.388 2297.43 671.652 Q2299.75 669.916 2299.75 666.606 Q2299.75 663.55 2297.59 661.837 Q2295.46 660.101 2291.65 660.101 L2287.62 660.101 L2287.62 656.258 L2291.83 656.258 Q2295.28 656.258 2297.11 654.893 Q2298.94 653.504 2298.94 650.911 Q2298.94 648.249 2297.04 646.837 Q2295.16 645.402 2291.65 645.402 Q2289.72 645.402 2287.52 645.819 Q2285.33 646.235 2282.69 647.115 L2282.69 642.948 Q2285.35 642.208 2287.66 641.837 Q2290 641.467 2292.06 641.467 Q2297.39 641.467 2300.49 643.897 Q2303.59 646.305 2303.59 650.425 Q2303.59 653.295 2301.95 655.286 Q2300.3 657.254 2297.27 658.018 Z" fill="#000000" fill-rule="evenodd" fill-opacity="1" /><path clip-path="url(#clip800)" d="M 0 0 M138.205 608.979 Q134.593 608.979 132.765 612.543 Q130.959 616.085 130.959 623.215 Q130.959 630.321 132.765 633.886 Q134.593 637.427 138.205 637.427 Q141.839 637.427 143.644 633.886 Q145.473 630.321 145.473 623.215 Q145.473 616.085 143.644 612.543 Q141.839 608.979 138.205 608.979 M138.205 605.275 Q144.015 605.275 147.07 609.881 Q150.149 614.465 150.149 623.215 Q150.149 631.941 147.07 636.548 Q144.015 641.131 138.205 641.131 Q132.394 641.131 129.316 636.548 Q126.26 631.941 126.26 623.215 Q126.26 614.465 129.316 609.881 Q132.394 605.275 138.205 605.275 Z" fill="#000000" fill-rule="evenodd" fill-opacity="1" /><path clip-path="url(#clip800)" d="M 0 0 M155.218 634.58 L160.103 634.58 L160.103 640.46 L155.218 640.46 L155.218 634.58 Z" fill="#000000" fill-rule="evenodd" fill-opacity="1" /><path clip-path="url(#clip800)" d="M 0 0 M175.172 608.979 Q171.561 608.979 169.732 612.543 Q167.927 616.085 167.927 623.215 Q167.927 630.321 169.732 633.886 Q171.561 637.427 175.172 637.427 Q178.806 637.427 180.612 633.886 Q182.44 630.321 182.44 623.215 Q182.44 616.085 180.612 612.543 Q178.806 608.979 175.172 608.979 M175.172 605.275 Q180.982 605.275 184.038 609.881 Q187.116 614.465 187.116 623.215 Q187.116 631.941 184.038 636.548 Q180.982 641.131 175.172 641.131 Q169.362 641.131 166.283 636.548 Q163.228 631.941 163.228 623.215 Q163.228 614.465 166.283 609.881 Q169.362 605.275 175.172 605.275 Z" fill="#000000" fill-rule="evenodd" fill-opacity="1" /><path clip-path="url(#clip800)" d="M 0 0 M202.186 608.979 Q198.575 608.979 196.746 612.543 Q194.94 616.085 194.94 623.215 Q194.94 630.321 196.746 633.886 Q198.575 637.427 202.186 637.427 Q205.82 637.427 207.625 633.886 Q209.454 630.321 209.454 623.215 Q209.454 616.085 207.625 612.543 Q205.82 608.979 202.186 608.979 M202.186 605.275 Q207.996 605.275 211.051 609.881 Q214.13 614.465 214.13 623.215 Q214.13 631.941 211.051 636.548 Q207.996 641.131 202.186 641.131 Q196.376 641.131 193.297 636.548 Q190.241 631.941 190.241 623.215 Q190.241 614.465 193.297 609.881 Q196.376 605.275 202.186 605.275 Z" fill="#000000" fill-rule="evenodd" fill-opacity="1" /><path clip-path="url(#clip800)" d="M 0 0 M139.2 485.192 Q135.589 485.192 133.76 488.756 Q131.955 492.298 131.955 499.428 Q131.955 506.534 133.76 510.099 Q135.589 513.64 139.2 513.64 Q142.834 513.64 144.64 510.099 Q146.468 506.534 146.468 499.428 Q146.468 492.298 144.64 488.756 Q142.834 485.192 139.2 485.192 M139.2 481.488 Q145.01 481.488 148.066 486.094 Q151.144 490.678 151.144 499.428 Q151.144 508.154 148.066 512.761 Q145.01 517.344 139.2 517.344 Q133.39 517.344 130.311 512.761 Q127.256 508.154 127.256 499.428 Q127.256 490.678 130.311 486.094 Q133.39 481.488 139.2 481.488 Z" fill="#000000" fill-rule="evenodd" fill-opacity="1" /><path clip-path="url(#clip800)" d="M 0 0 M156.214 510.793 L161.098 510.793 L161.098 516.673 L156.214 516.673 L156.214 510.793 Z" fill="#000000" fill-rule="evenodd" fill-opacity="1" /><path clip-path="url(#clip800)" d="M 0 0 M176.167 485.192 Q172.556 485.192 170.728 488.756 Q168.922 492.298 168.922 499.428 Q168.922 506.534 170.728 510.099 Q172.556 513.64 176.167 513.64 Q179.802 513.64 181.607 510.099 Q183.436 506.534 183.436 499.428 Q183.436 492.298 181.607 488.756 Q179.802 485.192 176.167 485.192 M176.167 481.488 Q181.977 481.488 185.033 486.094 Q188.112 490.678 188.112 499.428 Q188.112 508.154 185.033 512.761 Q181.977 517.344 176.167 517.344 Q170.357 517.344 167.278 512.761 Q164.223 508.154 164.223 499.428 Q164.223 490.678 167.278 486.094 Q170.357 481.488 176.167 481.488 Z" fill="#000000" fill-rule="evenodd" fill-opacity="1" /><path clip-path="url(#clip800)" d="M 0 0 M193.227 482.113 L211.584 482.113 L211.584 486.048 L197.51 486.048 L197.51 494.52 Q198.528 494.173 199.547 494.011 Q200.565 493.826 201.584 493.826 Q207.371 493.826 210.75 496.997 Q214.13 500.168 214.13 505.585 Q214.13 511.164 210.658 514.265 Q207.186 517.344 200.866 517.344 Q198.69 517.344 196.422 516.974 Q194.176 516.603 191.769 515.863 L191.769 511.164 Q193.852 512.298 196.075 512.853 Q198.297 513.409 200.774 513.409 Q204.778 513.409 207.116 511.303 Q209.454 509.196 209.454 505.585 Q209.454 501.974 207.116 499.867 Q204.778 497.761 200.774 497.761 Q198.899 497.761 197.024 498.178 Q195.172 498.594 193.227 499.474 L193.227 482.113 Z" fill="#000000" fill-rule="evenodd" fill-opacity="1" /><path clip-path="url(#clip800)" d="M 0 0 M139.431 361.405 Q135.82 361.405 133.992 364.969 Q132.186 368.511 132.186 375.641 Q132.186 382.747 133.992 386.312 Q135.82 389.854 139.431 389.854 Q143.066 389.854 144.871 386.312 Q146.7 382.747 146.7 375.641 Q146.7 368.511 144.871 364.969 Q143.066 361.405 139.431 361.405 M139.431 357.701 Q145.242 357.701 148.297 362.307 Q151.376 366.891 151.376 375.641 Q151.376 384.367 148.297 388.974 Q145.242 393.557 139.431 393.557 Q133.621 393.557 130.543 388.974 Q127.487 384.367 127.487 375.641 Q127.487 366.891 130.543 362.307 Q133.621 357.701 139.431 357.701 Z" fill="#000000" fill-rule="evenodd" fill-opacity="1" /><path clip-path="url(#clip800)" d="M 0 0 M156.445 387.006 L161.329 387.006 L161.329 392.886 L156.445 392.886 L156.445 387.006 Z" fill="#000000" fill-rule="evenodd" fill-opacity="1" /><path clip-path="url(#clip800)" d="M 0 0 M167.209 388.951 L174.848 388.951 L174.848 362.585 L166.538 364.252 L166.538 359.993 L174.802 358.326 L179.477 358.326 L179.477 388.951 L187.116 388.951 L187.116 392.886 L167.209 392.886 L167.209 388.951 Z" fill="#000000" fill-rule="evenodd" fill-opacity="1" /><path clip-path="url(#clip800)" d="M 0 0 M202.186 361.405 Q198.575 361.405 196.746 364.969 Q194.94 368.511 194.94 375.641 Q194.94 382.747 196.746 386.312 Q198.575 389.854 202.186 389.854 Q205.82 389.854 207.625 386.312 Q209.454 382.747 209.454 375.641 Q209.454 368.511 207.625 364.969 Q205.82 361.405 202.186 361.405 M202.186 357.701 Q207.996 357.701 211.051 362.307 Q214.13 366.891 214.13 375.641 Q214.13 384.367 211.051 388.974 Q207.996 393.557 202.186 393.557 Q196.376 393.557 193.297 388.974 Q190.241 384.367 190.241 375.641 Q190.241 366.891 193.297 362.307 Q196.376 357.701 202.186 357.701 Z" fill="#000000" fill-rule="evenodd" fill-opacity="1" /><path clip-path="url(#clip800)" d="M 0 0 M140.427 237.618 Q136.816 237.618 134.987 241.182 Q133.181 244.724 133.181 251.854 Q133.181 258.96 134.987 262.525 Q136.816 266.067 140.427 266.067 Q144.061 266.067 145.867 262.525 Q147.695 258.96 147.695 251.854 Q147.695 244.724 145.867 241.182 Q144.061 237.618 140.427 237.618 M140.427 233.914 Q146.237 233.914 149.292 238.52 Q152.371 243.104 152.371 251.854 Q152.371 260.58 149.292 265.187 Q146.237 269.77 140.427 269.77 Q134.617 269.77 131.538 265.187 Q128.482 260.58 128.482 251.854 Q128.482 243.104 131.538 238.52 Q134.617 233.914 140.427 233.914 Z" fill="#000000" fill-rule="evenodd" fill-opacity="1" /><path clip-path="url(#clip800)" d="M 0 0 M157.441 263.219 L162.325 263.219 L162.325 269.099 L157.441 269.099 L157.441 263.219 Z" fill="#000000" fill-rule="evenodd" fill-opacity="1" /><path clip-path="url(#clip800)" d="M 0 0 M168.204 265.164 L175.843 265.164 L175.843 238.798 L167.533 240.465 L167.533 236.206 L175.797 234.539 L180.473 234.539 L180.473 265.164 L188.112 265.164 L188.112 269.099 L168.204 269.099 L168.204 265.164 Z" fill="#000000" fill-rule="evenodd" fill-opacity="1" /><path clip-path="url(#clip800)" d="M 0 0 M193.227 234.539 L211.584 234.539 L211.584 238.474 L197.51 238.474 L197.51 246.946 Q198.528 246.599 199.547 246.437 Q200.565 246.252 201.584 246.252 Q207.371 246.252 210.75 249.423 Q214.13 252.594 214.13 258.011 Q214.13 263.59 210.658 266.692 Q207.186 269.77 200.866 269.77 Q198.69 269.77 196.422 269.4 Q194.176 269.029 191.769 268.289 L191.769 263.59 Q193.852 264.724 196.075 265.28 Q198.297 265.835 200.774 265.835 Q204.778 265.835 207.116 263.729 Q209.454 261.622 209.454 258.011 Q209.454 254.4 207.116 252.293 Q204.778 250.187 200.774 250.187 Q198.899 250.187 197.024 250.604 Q195.172 251.02 193.227 251.9 L193.227 234.539 Z" fill="#000000" fill-rule="evenodd" fill-opacity="1" /><path clip-path="url(#clip800)" d="M 0 0 M139.802 113.831 Q136.191 113.831 134.362 117.395 Q132.556 120.937 132.556 128.067 Q132.556 135.173 134.362 138.738 Q136.191 142.28 139.802 142.28 Q143.436 142.28 145.242 138.738 Q147.07 135.173 147.07 128.067 Q147.07 120.937 145.242 117.395 Q143.436 113.831 139.802 113.831 M139.802 110.127 Q145.612 110.127 148.667 114.733 Q151.746 119.317 151.746 128.067 Q151.746 136.793 148.667 141.4 Q145.612 145.983 139.802 145.983 Q133.992 145.983 130.913 141.4 Q127.857 136.793 127.857 128.067 Q127.857 119.317 130.913 114.733 Q133.992 110.127 139.802 110.127 Z" fill="#000000" fill-rule="evenodd" fill-opacity="1" /><path clip-path="url(#clip800)" d="M 0 0 M156.816 139.432 L161.7 139.432 L161.7 145.312 L156.816 145.312 L156.816 139.432 Z" fill="#000000" fill-rule="evenodd" fill-opacity="1" /><path clip-path="url(#clip800)" d="M 0 0 M170.797 141.377 L187.116 141.377 L187.116 145.312 L165.172 145.312 L165.172 141.377 Q167.834 138.622 172.417 133.993 Q177.024 129.34 178.204 127.997 Q180.45 125.474 181.329 123.738 Q182.232 121.979 182.232 120.289 Q182.232 117.534 180.288 115.798 Q178.366 114.062 175.265 114.062 Q173.065 114.062 170.612 114.826 Q168.181 115.59 165.403 117.141 L165.403 112.419 Q168.228 111.284 170.681 110.706 Q173.135 110.127 175.172 110.127 Q180.542 110.127 183.737 112.812 Q186.931 115.497 186.931 119.988 Q186.931 122.118 186.121 124.039 Q185.334 125.937 183.227 128.53 Q182.649 129.201 179.547 132.419 Q176.445 135.613 170.797 141.377 Z" fill="#000000" fill-rule="evenodd" fill-opacity="1" /><path clip-path="url(#clip800)" d="M 0 0 M202.186 113.831 Q198.575 113.831 196.746 117.395 Q194.94 120.937 194.94 128.067 Q194.94 135.173 196.746 138.738 Q198.575 142.28 202.186 142.28 Q205.82 142.28 207.625 138.738 Q209.454 135.173 209.454 128.067 Q209.454 120.937 207.625 117.395 Q205.82 113.831 202.186 113.831 M202.186 110.127 Q207.996 110.127 211.051 114.733 Q214.13 119.317 214.13 128.067 Q214.13 136.793 211.051 141.4 Q207.996 145.983 202.186 145.983 Q196.376 145.983 193.297 141.4 Q190.241 136.793 190.241 128.067 Q190.241 119.317 193.297 114.733 Q196.376 110.127 202.186 110.127 Z" fill="#000000" fill-rule="evenodd" fill-opacity="1" /><path clip-path="url(#clip800)" d="M 0 0 M896.004 18.8205 L896.004 41.5461 L906.293 41.5461 Q912.005 41.5461 915.124 38.5889 Q918.243 35.6318 918.243 30.163 Q918.243 24.7348 915.124 21.7777 Q912.005 18.8205 906.293 18.8205 L896.004 18.8205 M887.821 12.096 L906.293 12.096 Q916.461 12.096 921.646 16.714 Q926.871 21.2916 926.871 30.163 Q926.871 39.1155 921.646 43.6931 Q916.461 48.2706 906.293 48.2706 L896.004 48.2706 L896.004 72.576 L887.821 72.576 L887.821 12.096 Z" fill="#000000" fill-rule="evenodd" fill-opacity="1" /><path clip-path="url(#clip800)" d="M 0 0 M959.522 34.1734 Q958.266 33.4443 956.767 33.1202 Q955.309 32.7556 953.526 32.7556 Q947.207 32.7556 943.804 36.8875 Q940.442 40.9789 940.442 48.6757 L940.442 72.576 L932.948 72.576 L932.948 27.2059 L940.442 27.2059 L940.442 34.2544 Q942.792 30.1225 946.559 28.1376 Q950.326 26.1121 955.714 26.1121 Q956.484 26.1121 957.415 26.2337 Q958.347 26.3147 959.481 26.5172 L959.522 34.1734 Z" fill="#000000" fill-rule="evenodd" fill-opacity="1" /><path clip-path="url(#clip800)" d="M 0 0 M983.098 32.4315 Q977.103 32.4315 973.619 37.1306 Q970.135 41.7891 970.135 49.9314 Q970.135 58.0738 973.578 62.7728 Q977.062 67.4314 983.098 67.4314 Q989.053 67.4314 992.537 62.7323 Q996.02 58.0333 996.02 49.9314 Q996.02 41.8701 992.537 37.1711 Q989.053 32.4315 983.098 32.4315 M983.098 26.1121 Q992.82 26.1121 998.37 32.4315 Q1003.92 38.7509 1003.92 49.9314 Q1003.92 61.0714 998.37 67.4314 Q992.82 73.7508 983.098 73.7508 Q973.335 73.7508 967.786 67.4314 Q962.276 61.0714 962.276 49.9314 Q962.276 38.7509 967.786 32.4315 Q973.335 26.1121 983.098 26.1121 Z" fill="#000000" fill-rule="evenodd" fill-opacity="1" /><path clip-path="url(#clip800)" d="M 0 0 M1044.31 49.9314 Q1044.31 41.7081 1040.9 37.0496 Q1037.54 32.3505 1031.63 32.3505 Q1025.71 32.3505 1022.31 37.0496 Q1018.95 41.7081 1018.95 49.9314 Q1018.95 58.1548 1022.31 62.8538 Q1025.71 67.5124 1031.63 67.5124 Q1037.54 67.5124 1040.9 62.8538 Q1044.31 58.1548 1044.31 49.9314 M1018.95 34.0924 Q1021.3 30.0415 1024.86 28.0971 Q1028.47 26.1121 1033.45 26.1121 Q1041.71 26.1121 1046.86 32.6746 Q1052.04 39.2371 1052.04 49.9314 Q1052.04 60.6258 1046.86 67.1883 Q1041.71 73.7508 1033.45 73.7508 Q1028.47 73.7508 1024.86 71.8063 Q1021.3 69.8214 1018.95 65.7705 L1018.95 72.576 L1011.45 72.576 L1011.45 9.54393 L1018.95 9.54393 L1018.95 34.0924 Z" fill="#000000" fill-rule="evenodd" fill-opacity="1" /><path clip-path="url(#clip800)" d="M 0 0 M1080.48 49.7694 Q1071.45 49.7694 1067.96 51.8354 Q1064.48 53.9013 1064.48 58.8839 Q1064.48 62.8538 1067.07 65.2034 Q1069.71 67.5124 1074.2 67.5124 Q1080.4 67.5124 1084.13 63.1374 Q1087.89 58.7219 1087.89 51.4303 L1087.89 49.7694 L1080.48 49.7694 M1095.35 46.6907 L1095.35 72.576 L1087.89 72.576 L1087.89 65.6895 Q1085.34 69.8214 1081.53 71.8063 Q1077.73 73.7508 1072.22 73.7508 Q1065.25 73.7508 1061.12 69.8619 Q1057.03 65.9325 1057.03 59.3701 Q1057.03 51.7138 1062.13 47.825 Q1067.28 43.9361 1077.44 43.9361 L1087.89 43.9361 L1087.89 43.2069 Q1087.89 38.0623 1084.49 35.2672 Q1081.13 32.4315 1075.01 32.4315 Q1071.12 32.4315 1067.44 33.3632 Q1063.75 34.295 1060.35 36.1584 L1060.35 29.2718 Q1064.44 27.692 1068.29 26.9223 Q1072.14 26.1121 1075.78 26.1121 Q1085.63 26.1121 1090.49 31.2163 Q1095.35 36.3204 1095.35 46.6907 Z" fill="#000000" fill-rule="evenodd" fill-opacity="1" /><path clip-path="url(#clip800)" d="M 0 0 M1135.74 49.9314 Q1135.74 41.7081 1132.33 37.0496 Q1128.97 32.3505 1123.06 32.3505 Q1117.14 32.3505 1113.74 37.0496 Q1110.38 41.7081 1110.38 49.9314 Q1110.38 58.1548 1113.74 62.8538 Q1117.14 67.5124 1123.06 67.5124 Q1128.97 67.5124 1132.33 62.8538 Q1135.74 58.1548 1135.74 49.9314 M1110.38 34.0924 Q1112.73 30.0415 1116.29 28.0971 Q1119.9 26.1121 1124.88 26.1121 Q1133.14 26.1121 1138.29 32.6746 Q1143.47 39.2371 1143.47 49.9314 Q1143.47 60.6258 1138.29 67.1883 Q1133.14 73.7508 1124.88 73.7508 Q1119.9 73.7508 1116.29 71.8063 Q1112.73 69.8214 1110.38 65.7705 L1110.38 72.576 L1102.88 72.576 L1102.88 9.54393 L1110.38 9.54393 L1110.38 34.0924 Z" fill="#000000" fill-rule="evenodd" fill-opacity="1" /><path clip-path="url(#clip800)" d="M 0 0 M1151.29 27.2059 L1158.75 27.2059 L1158.75 72.576 L1151.29 72.576 L1151.29 27.2059 M1151.29 9.54393 L1158.75 9.54393 L1158.75 18.9825 L1151.29 18.9825 L1151.29 9.54393 Z" fill="#000000" fill-rule="evenodd" fill-opacity="1" /><path clip-path="url(#clip800)" d="M 0 0 M1166.56 9.54393 L1174.02 9.54393 L1174.02 72.576 L1166.56 72.576 L1166.56 9.54393 Z" fill="#000000" fill-rule="evenodd" fill-opacity="1" /><path clip-path="url(#clip800)" d="M 0 0 M1181.84 27.2059 L1189.29 27.2059 L1189.29 72.576 L1181.84 72.576 L1181.84 27.2059 M1181.84 9.54393 L1189.29 9.54393 L1189.29 18.9825 L1181.84 18.9825 L1181.84 9.54393 Z" fill="#000000" fill-rule="evenodd" fill-opacity="1" /><path clip-path="url(#clip800)" d="M 0 0 M1204.48 14.324 L1204.48 27.2059 L1219.83 27.2059 L1219.83 32.9987 L1204.48 32.9987 L1204.48 57.6282 Q1204.48 63.1779 1205.98 64.7578 Q1207.52 66.3376 1212.18 66.3376 L1219.83 66.3376 L1219.83 72.576 L1212.18 72.576 Q1203.55 72.576 1200.27 69.3758 Q1196.99 66.1351 1196.99 57.6282 L1196.99 32.9987 L1191.52 32.9987 L1191.52 27.2059 L1196.99 27.2059 L1196.99 14.324 L1204.48 14.324 Z" fill="#000000" fill-rule="evenodd" fill-opacity="1" /><path clip-path="url(#clip800)" d="M 0 0 M1246.53 76.7889 Q1243.37 84.8907 1240.37 87.3618 Q1237.37 89.8329 1232.35 89.8329 L1226.4 89.8329 L1226.4 83.5945 L1230.77 83.5945 Q1233.85 83.5945 1235.55 82.1361 Q1237.25 80.6778 1239.32 75.2496 L1240.65 71.8468 L1222.3 27.2059 L1230.2 27.2059 L1244.38 62.6918 L1258.56 27.2059 L1266.46 27.2059 L1246.53 76.7889 Z" fill="#000000" fill-rule="evenodd" fill-opacity="1" /><path clip-path="url(#clip800)" d="M 0 0 M1330.5 34.0924 L1330.5 9.54393 L1337.96 9.54393 L1337.96 72.576 L1330.5 72.576 L1330.5 65.7705 Q1328.15 69.8214 1324.55 71.8063 Q1320.98 73.7508 1315.96 73.7508 Q1307.74 73.7508 1302.55 67.1883 Q1297.41 60.6258 1297.41 49.9314 Q1297.41 39.2371 1302.55 32.6746 Q1307.74 26.1121 1315.96 26.1121 Q1320.98 26.1121 1324.55 28.0971 Q1328.15 30.0415 1330.5 34.0924 M1305.1 49.9314 Q1305.1 58.1548 1308.47 62.8538 Q1311.87 67.5124 1317.78 67.5124 Q1323.7 67.5124 1327.1 62.8538 Q1330.5 58.1548 1330.5 49.9314 Q1330.5 41.7081 1327.1 37.0496 Q1323.7 32.3505 1317.78 32.3505 Q1311.87 32.3505 1308.47 37.0496 Q1305.1 41.7081 1305.1 49.9314 Z" fill="#000000" fill-rule="evenodd" fill-opacity="1" /><path clip-path="url(#clip800)" d="M 0 0 M1345.78 27.2059 L1353.23 27.2059 L1353.23 72.576 L1345.78 72.576 L1345.78 27.2059 M1345.78 9.54393 L1353.23 9.54393 L1353.23 18.9825 L1345.78 18.9825 L1345.78 9.54393 Z" fill="#000000" fill-rule="evenodd" fill-opacity="1" /><path clip-path="url(#clip800)" d="M 0 0 M1389.97 28.5427 L1389.97 35.5912 Q1386.81 33.9709 1383.41 33.1607 Q1380.01 32.3505 1376.36 32.3505 Q1370.81 32.3505 1368.01 34.0519 Q1365.26 35.7533 1365.26 39.156 Q1365.26 41.7486 1367.25 43.2475 Q1369.23 44.7058 1375.23 46.0426 L1377.78 46.6097 Q1385.72 48.3111 1389.04 51.4303 Q1392.4 54.509 1392.4 60.0587 Q1392.4 66.3781 1387.38 70.0644 Q1382.4 73.7508 1373.65 73.7508 Q1370 73.7508 1366.03 73.0216 Q1362.1 72.3329 1357.73 70.9151 L1357.73 63.2184 Q1361.86 65.3654 1365.87 66.4591 Q1369.88 67.5124 1373.81 67.5124 Q1379.07 67.5124 1381.91 65.73 Q1384.75 63.9071 1384.75 60.6258 Q1384.75 57.5877 1382.68 55.9673 Q1380.65 54.3469 1373.73 52.8481 L1371.13 52.2405 Q1364.21 50.7821 1361.13 47.7845 Q1358.05 44.7463 1358.05 39.4801 Q1358.05 33.0797 1362.59 29.5959 Q1367.12 26.1121 1375.47 26.1121 Q1379.6 26.1121 1383.25 26.7198 Q1386.89 27.3274 1389.97 28.5427 Z" fill="#000000" fill-rule="evenodd" fill-opacity="1" /><path clip-path="url(#clip800)" d="M 0 0 M1407.59 14.324 L1407.59 27.2059 L1422.95 27.2059 L1422.95 32.9987 L1407.59 32.9987 L1407.59 57.6282 Q1407.59 63.1779 1409.09 64.7578 Q1410.63 66.3376 1415.29 66.3376 L1422.95 66.3376 L1422.95 72.576 L1415.29 72.576 Q1406.66 72.576 1403.38 69.3758 Q1400.1 66.1351 1400.1 57.6282 L1400.1 32.9987 L1394.63 32.9987 L1394.63 27.2059 L1400.1 27.2059 L1400.1 14.324 L1407.59 14.324 Z" fill="#000000" fill-rule="evenodd" fill-opacity="1" /><path clip-path="url(#clip800)" d="M 0 0 M1457.05 34.1734 Q1455.8 33.4443 1454.3 33.1202 Q1452.84 32.7556 1451.06 32.7556 Q1444.74 32.7556 1441.34 36.8875 Q1437.97 40.9789 1437.97 48.6757 L1437.97 72.576 L1430.48 72.576 L1430.48 27.2059 L1437.97 27.2059 L1437.97 34.2544 Q1440.32 30.1225 1444.09 28.1376 Q1447.86 26.1121 1453.25 26.1121 Q1454.02 26.1121 1454.95 26.2337 Q1455.88 26.3147 1457.01 26.5172 L1457.05 34.1734 Z" fill="#000000" fill-rule="evenodd" fill-opacity="1" /><path clip-path="url(#clip800)" d="M 0 0 M1464.87 27.2059 L1472.33 27.2059 L1472.33 72.576 L1464.87 72.576 L1464.87 27.2059 M1464.87 9.54393 L1472.33 9.54393 L1472.33 18.9825 L1464.87 18.9825 L1464.87 9.54393 Z" fill="#000000" fill-rule="evenodd" fill-opacity="1" /><path clip-path="url(#clip800)" d="M 0 0 M1512.71 49.9314 Q1512.71 41.7081 1509.31 37.0496 Q1505.95 32.3505 1500.03 32.3505 Q1494.12 32.3505 1490.72 37.0496 Q1487.35 41.7081 1487.35 49.9314 Q1487.35 58.1548 1490.72 62.8538 Q1494.12 67.5124 1500.03 67.5124 Q1505.95 67.5124 1509.31 62.8538 Q1512.71 58.1548 1512.71 49.9314 M1487.35 34.0924 Q1489.7 30.0415 1493.27 28.0971 Q1496.87 26.1121 1501.86 26.1121 Q1510.12 26.1121 1515.27 32.6746 Q1520.45 39.2371 1520.45 49.9314 Q1520.45 60.6258 1515.27 67.1883 Q1510.12 73.7508 1501.86 73.7508 Q1496.87 73.7508 1493.27 71.8063 Q1489.7 69.8214 1487.35 65.7705 L1487.35 72.576 L1479.86 72.576 L1479.86 9.54393 L1487.35 9.54393 L1487.35 34.0924 Z" fill="#000000" fill-rule="evenodd" fill-opacity="1" /><path clip-path="url(#clip800)" d="M 0 0 M1527.5 54.671 L1527.5 27.2059 L1534.95 27.2059 L1534.95 54.3874 Q1534.95 60.8284 1537.46 64.0691 Q1539.98 67.2693 1545 67.2693 Q1551.03 67.2693 1554.52 63.421 Q1558.04 59.5726 1558.04 52.9291 L1558.04 27.2059 L1565.5 27.2059 L1565.5 72.576 L1558.04 72.576 L1558.04 65.6084 Q1555.33 69.7404 1551.72 71.7658 Q1548.16 73.7508 1543.42 73.7508 Q1535.6 73.7508 1531.55 68.8897 Q1527.5 64.0286 1527.5 54.671 M1546.25 26.1121 L1546.25 26.1121 Z" fill="#000000" fill-rule="evenodd" fill-opacity="1" /><path clip-path="url(#clip800)" d="M 0 0 M1580.69 14.324 L1580.69 27.2059 L1596.04 27.2059 L1596.04 32.9987 L1580.69 32.9987 L1580.69 57.6282 Q1580.69 63.1779 1582.19 64.7578 Q1583.73 66.3376 1588.38 66.3376 L1596.04 66.3376 L1596.04 72.576 L1588.38 72.576 Q1579.76 72.576 1576.47 69.3758 Q1573.19 66.1351 1573.19 57.6282 L1573.19 32.9987 L1567.72 32.9987 L1567.72 27.2059 L1573.19 27.2059 L1573.19 14.324 L1580.69 14.324 Z" fill="#000000" fill-rule="evenodd" fill-opacity="1" /><path clip-path="url(#clip800)" d="M 0 0 M1603.86 27.2059 L1611.31 27.2059 L1611.31 72.576 L1603.86 72.576 L1603.86 27.2059 M1603.86 9.54393 L1611.31 9.54393 L1611.31 18.9825 L1603.86 18.9825 L1603.86 9.54393 Z" fill="#000000" fill-rule="evenodd" fill-opacity="1" /><path clip-path="url(#clip800)" d="M 0 0 M1636.71 32.4315 Q1630.72 32.4315 1627.23 37.1306 Q1623.75 41.7891 1623.75 49.9314 Q1623.75 58.0738 1627.19 62.7728 Q1630.68 67.4314 1636.71 67.4314 Q1642.67 67.4314 1646.15 62.7323 Q1649.63 58.0333 1649.63 49.9314 Q1649.63 41.8701 1646.15 37.1711 Q1642.67 32.4315 1636.71 32.4315 M1636.71 26.1121 Q1646.43 26.1121 1651.98 32.4315 Q1657.53 38.7509 1657.53 49.9314 Q1657.53 61.0714 1651.98 67.4314 Q1646.43 73.7508 1636.71 73.7508 Q1626.95 73.7508 1621.4 67.4314 Q1615.89 61.0714 1615.89 49.9314 Q1615.89 38.7509 1621.4 32.4315 Q1626.95 26.1121 1636.71 26.1121 Z" fill="#000000" fill-rule="evenodd" fill-opacity="1" /><path clip-path="url(#clip800)" d="M 0 0 M1703.07 45.1919 L1703.07 72.576 L1695.61 72.576 L1695.61 45.4349 Q1695.61 38.994 1693.1 35.7938 Q1690.59 32.5936 1685.57 32.5936 Q1679.53 32.5936 1676.05 36.4419 Q1672.56 40.2903 1672.56 46.9338 L1672.56 72.576 L1665.07 72.576 L1665.07 27.2059 L1672.56 27.2059 L1672.56 34.2544 Q1675.24 30.163 1678.84 28.1376 Q1682.49 26.1121 1687.23 26.1121 Q1695.04 26.1121 1699.05 30.9732 Q1703.07 35.7938 1703.07 45.1919 Z" fill="#000000" fill-rule="evenodd" fill-opacity="1" /><path clip-path="url(#clip800)" d="M 0 0 M1312.06 720.396 L1299.17 737.742 L1312.73 756.044 L1305.82 756.044 L1295.44 742.039 L1285.07 756.044 L1278.16 756.044 L1292.01 737.392 L1279.34 720.396 L1286.24 720.396 L1295.7 733.095 L1305.15 720.396 L1312.06 720.396 Z" fill="#000000" fill-rule="evenodd" fill-opacity="1" /><path clip-path="url(#clip800)" d="M 0 0 M38.479 400.221 L43.3487 400.221 L43.3487 405.823 Q43.3487 408.974 44.6219 410.215 Q45.895 411.425 49.2052 411.425 L52.3562 411.425 L52.3562 401.781 L56.9077 401.781 L56.9077 411.425 L88.0042 411.425 L88.0042 417.313 L56.9077 417.313 L56.9077 422.915 L52.3562 422.915 L52.3562 417.313 L49.8736 417.313 Q43.9216 417.313 41.2162 414.544 Q38.479 411.775 38.479 405.759 L38.479 400.221 Z" fill="#000000" fill-rule="evenodd" fill-opacity="1" /><path clip-path="url(#clip800)" d="M 0 0 M38.5426 380.01 Q45.8632 384.275 53.0246 386.344 Q60.186 388.413 67.5384 388.413 Q74.8908 388.413 82.1159 386.344 Q89.3091 384.243 96.5979 380.01 L96.5979 385.103 Q89.1182 389.877 81.8931 392.264 Q74.668 394.619 67.5384 394.619 Q60.4406 394.619 53.2474 392.264 Q46.0542 389.909 38.5426 385.103 L38.5426 380.01 Z" fill="#000000" fill-rule="evenodd" fill-opacity="1" /><path clip-path="url(#clip800)" d="M 0 0 M52.3562 344.235 L69.7028 357.125 L88.0042 343.566 L88.0042 350.473 L73.9996 360.849 L88.0042 371.225 L88.0042 378.132 L69.3526 364.287 L52.3562 376.954 L52.3562 370.048 L65.0558 360.595 L52.3562 351.141 L52.3562 344.235 Z" fill="#000000" fill-rule="evenodd" fill-opacity="1" /><path clip-path="url(#clip800)" d="M 0 0 M38.5426 338.346 L38.5426 333.254 Q46.0542 328.48 53.2474 326.124 Q60.4406 323.737 67.5384 323.737 Q74.668 323.737 81.8931 326.124 Q89.1182 328.48 96.5979 333.254 L96.5979 338.346 Q89.3091 334.113 82.1159 332.044 Q74.8908 329.944 67.5384 329.944 Q60.186 329.944 53.0246 332.044 Q45.8632 334.113 38.5426 338.346 Z" fill="#000000" fill-rule="evenodd" fill-opacity="1" /><polyline clip-path="url(#clip802)" style="stroke:#009af9; stroke-width:0; stroke-opacity:1; fill:none" points="
  297.978,518.982 480.603,411.912 541.984,483.307 569.051,238.554 
  "/>
<circle clip-path="url(#clip802)" cx="297.978" cy="518.982" r="14" fill="#ff0000" fill-rule="evenodd" fill-opacity="1" stroke="#000000" stroke-opacity="1" stroke-width="3.2"/>
<circle clip-path="url(#clip802)" cx="480.603" cy="411.912" r="14" fill="#ff0000" fill-rule="evenodd" fill-opacity="1" stroke="#000000" stroke-opacity="1" stroke-width="3.2"/>
<circle clip-path="url(#clip802)" cx="541.984" cy="483.307" r="14" fill="#ff0000" fill-rule="evenodd" fill-opacity="1" stroke="#000000" stroke-opacity="1" stroke-width="3.2"/>
<circle clip-path="url(#clip802)" cx="569.051" cy="238.554" r="14" fill="#ff0000" fill-rule="evenodd" fill-opacity="1" stroke="#000000" stroke-opacity="1" stroke-width="3.2"/>
<polyline clip-path="url(#clip802)" style="stroke:#e26f46; stroke-width:0; stroke-opacity:1; fill:none" points="
  1345.53,613.045 1394.4,584.902 1617.09,484.604 1678.94,498.136 1759.56,188.651 2235.28,480.068 2277.01,304.627 2292.91,195.631 
  "/>
<circle clip-path="url(#clip802)" cx="1345.53" cy="613.045" r="14" fill="#0000ff" fill-rule="evenodd" fill-opacity="1" stroke="#000000" stroke-opacity="1" stroke-width="3.2"/>
<circle clip-path="url(#clip802)" cx="1394.4" cy="584.902" r="14" fill="#0000ff" fill-rule="evenodd" fill-opacity="1" stroke="#000000" stroke-opacity="1" stroke-width="3.2"/>
<circle clip-path="url(#clip802)" cx="1617.09" cy="484.604" r="14" fill="#0000ff" fill-rule="evenodd" fill-opacity="1" stroke="#000000" stroke-opacity="1" stroke-width="3.2"/>
<circle clip-path="url(#clip802)" cx="1678.94" cy="498.136" r="14" fill="#0000ff" fill-rule="evenodd" fill-opacity="1" stroke="#000000" stroke-opacity="1" stroke-width="3.2"/>
<circle clip-path="url(#clip802)" cx="1759.56" cy="188.651" r="14" fill="#0000ff" fill-rule="evenodd" fill-opacity="1" stroke="#000000" stroke-opacity="1" stroke-width="3.2"/>
<circle clip-path="url(#clip802)" cx="2235.28" cy="480.068" r="14" fill="#0000ff" fill-rule="evenodd" fill-opacity="1" stroke="#000000" stroke-opacity="1" stroke-width="3.2"/>
<circle clip-path="url(#clip802)" cx="2277.01" cy="304.627" r="14" fill="#0000ff" fill-rule="evenodd" fill-opacity="1" stroke="#000000" stroke-opacity="1" stroke-width="3.2"/>
<circle clip-path="url(#clip802)" cx="2292.91" cy="195.631" r="14" fill="#0000ff" fill-rule="evenodd" fill-opacity="1" stroke="#000000" stroke-opacity="1" stroke-width="3.2"/>
<polyline clip-path="url(#clip802)" style="stroke:#808080; stroke-width:12; stroke-opacity:0.5; fill:none" points="
  297.978,623.18 297.978,518.982 
  "/>
<polyline clip-path="url(#clip802)" style="stroke:#808080; stroke-width:12; stroke-opacity:0.5; fill:none" points="
  480.603,623.18 480.603,411.912 
  "/>
<polyline clip-path="url(#clip802)" style="stroke:#808080; stroke-width:12; stroke-opacity:0.5; fill:none" points="
  541.984,623.18 541.984,483.307 
  "/>
<polyline clip-path="url(#clip802)" style="stroke:#808080; stroke-width:12; stroke-opacity:0.5; fill:none" points="
  569.051,623.18 569.051,238.554 
  "/>
<polyline clip-path="url(#clip802)" style="stroke:#808080; stroke-width:12; stroke-opacity:0.5; fill:none" points="
  1345.53,623.18 1345.53,613.045 
  "/>
<polyline clip-path="url(#clip802)" style="stroke:#808080; stroke-width:12; stroke-opacity:0.5; fill:none" points="
  1394.4,623.18 1394.4,584.902 
  "/>
<polyline clip-path="url(#clip802)" style="stroke:#808080; stroke-width:12; stroke-opacity:0.5; fill:none" points="
  1617.09,623.18 1617.09,484.604 
  "/>
<polyline clip-path="url(#clip802)" style="stroke:#808080; stroke-width:12; stroke-opacity:0.5; fill:none" points="
  1678.94,623.18 1678.94,498.136 
  "/>
<polyline clip-path="url(#clip802)" style="stroke:#808080; stroke-width:12; stroke-opacity:0.5; fill:none" points="
  1759.56,623.18 1759.56,188.651 
  "/>
<polyline clip-path="url(#clip802)" style="stroke:#808080; stroke-width:12; stroke-opacity:0.5; fill:none" points="
  2235.28,623.18 2235.28,480.068 
  "/>
<polyline clip-path="url(#clip802)" style="stroke:#808080; stroke-width:12; stroke-opacity:0.5; fill:none" points="
  2277.01,623.18 2277.01,304.627 
  "/>
<polyline clip-path="url(#clip802)" style="stroke:#808080; stroke-width:12; stroke-opacity:0.5; fill:none" points="
  2292.91,623.18 2292.91,195.631 
  "/>
<path clip-path="url(#clip802)" d="M1501.96 599.18 L1477.96 623.18 L1501.96 647.18 L1525.96 623.18 L1501.96 599.18 Z" fill="#008000" fill-rule="evenodd" fill-opacity="1" stroke="#000000" stroke-opacity="1" stroke-width="3.2"/>
<path clip-path="url(#clip802)" d="M569.051 599.18 L545.051 623.18 L569.051 647.18 L593.051 623.18 L569.051 599.18 Z" fill="#ffff00" fill-rule="evenodd" fill-opacity="1" stroke="#000000" stroke-opacity="1" stroke-width="3.2"/>
<path clip-path="url(#clip802)" d="M487.108 599.18 L463.108 623.18 L487.108 647.18 L511.108 623.18 L487.108 599.18 Z" fill="#ffa500" fill-rule="evenodd" fill-opacity="1" stroke="#000000" stroke-opacity="1" stroke-width="3.2"/>
<path clip-path="url(#clip800)" d="
M238.13 1423.18 L2352.76 1423.18 L2352.76 923.472 L238.13 923.472  Z
  " fill="#ffffff" fill-rule="evenodd" fill-opacity="1"/>
<defs>
  <clipPath id="clip803">
    <rect x="238" y="923" width="2116" height="501"/>
  </clipPath>
</defs>
<polyline clip-path="url(#clip803)" style="stroke:#000000; stroke-width:2; stroke-opacity:0.1; fill:none" points="
  291.646,1423.18 291.646,923.472 
  "/>
<polyline clip-path="url(#clip803)" style="stroke:#000000; stroke-width:2; stroke-opacity:0.1; fill:none" points="
  691.921,1423.18 691.921,923.472 
  "/>
<polyline clip-path="url(#clip803)" style="stroke:#000000; stroke-width:2; stroke-opacity:0.1; fill:none" points="
  1092.2,1423.18 1092.2,923.472 
  "/>
<polyline clip-path="url(#clip803)" style="stroke:#000000; stroke-width:2; stroke-opacity:0.1; fill:none" points="
  1492.47,1423.18 1492.47,923.472 
  "/>
<polyline clip-path="url(#clip803)" style="stroke:#000000; stroke-width:2; stroke-opacity:0.1; fill:none" points="
  1892.75,1423.18 1892.75,923.472 
  "/>
<polyline clip-path="url(#clip803)" style="stroke:#000000; stroke-width:2; stroke-opacity:0.1; fill:none" points="
  2293.02,1423.18 2293.02,923.472 
  "/>
<polyline clip-path="url(#clip803)" style="stroke:#000000; stroke-width:2; stroke-opacity:0.1; fill:none" points="
  238.13,1423.18 2352.76,1423.18 
  "/>
<polyline clip-path="url(#clip803)" style="stroke:#000000; stroke-width:2; stroke-opacity:0.1; fill:none" points="
  238.13,1314.55 2352.76,1314.55 
  "/>
<polyline clip-path="url(#clip803)" style="stroke:#000000; stroke-width:2; stroke-opacity:0.1; fill:none" points="
  238.13,1205.92 2352.76,1205.92 
  "/>
<polyline clip-path="url(#clip803)" style="stroke:#000000; stroke-width:2; stroke-opacity:0.1; fill:none" points="
  238.13,1097.28 2352.76,1097.28 
  "/>
<polyline clip-path="url(#clip803)" style="stroke:#000000; stroke-width:2; stroke-opacity:0.1; fill:none" points="
  238.13,988.651 2352.76,988.651 
  "/>
<polyline clip-path="url(#clip800)" style="stroke:#000000; stroke-width:4; stroke-opacity:1; fill:none" points="
  238.13,1423.18 2352.76,1423.18 
  "/>
<polyline clip-path="url(#clip800)" style="stroke:#000000; stroke-width:4; stroke-opacity:1; fill:none" points="
  238.13,1423.18 238.13,923.472 
  "/>
<polyline clip-path="url(#clip800)" style="stroke:#000000; stroke-width:4; stroke-opacity:1; fill:none" points="
  291.646,1423.18 291.646,1417.18 
  "/>
<polyline clip-path="url(#clip800)" style="stroke:#000000; stroke-width:4; stroke-opacity:1; fill:none" points="
  691.921,1423.18 691.921,1417.18 
  "/>
<polyline clip-path="url(#clip800)" style="stroke:#000000; stroke-width:4; stroke-opacity:1; fill:none" points="
  1092.2,1423.18 1092.2,1417.18 
  "/>
<polyline clip-path="url(#clip800)" style="stroke:#000000; stroke-width:4; stroke-opacity:1; fill:none" points="
  1492.47,1423.18 1492.47,1417.18 
  "/>
<polyline clip-path="url(#clip800)" style="stroke:#000000; stroke-width:4; stroke-opacity:1; fill:none" points="
  1892.75,1423.18 1892.75,1417.18 
  "/>
<polyline clip-path="url(#clip800)" style="stroke:#000000; stroke-width:4; stroke-opacity:1; fill:none" points="
  2293.02,1423.18 2293.02,1417.18 
  "/>
<polyline clip-path="url(#clip800)" style="stroke:#000000; stroke-width:4; stroke-opacity:1; fill:none" points="
  238.13,1423.18 263.506,1423.18 
  "/>
<polyline clip-path="url(#clip800)" style="stroke:#000000; stroke-width:4; stroke-opacity:1; fill:none" points="
  238.13,1314.55 263.506,1314.55 
  "/>
<polyline clip-path="url(#clip800)" style="stroke:#000000; stroke-width:4; stroke-opacity:1; fill:none" points="
  238.13,1205.92 263.506,1205.92 
  "/>
<polyline clip-path="url(#clip800)" style="stroke:#000000; stroke-width:4; stroke-opacity:1; fill:none" points="
  238.13,1097.28 263.506,1097.28 
  "/>
<polyline clip-path="url(#clip800)" style="stroke:#000000; stroke-width:4; stroke-opacity:1; fill:none" points="
  238.13,988.651 263.506,988.651 
  "/>
<path clip-path="url(#clip800)" d="M 0 0 M272.7 1461.77 L285.176 1461.77 L285.176 1465.56 L272.7 1465.56 L272.7 1461.77 Z" fill="#000000" fill-rule="evenodd" fill-opacity="1" /><path clip-path="url(#clip800)" d="M 0 0 M294.273 1472.72 L310.593 1472.72 L310.593 1476.65 L288.649 1476.65 L288.649 1472.72 Q291.311 1469.96 295.894 1465.33 Q300.5 1460.68 301.681 1459.34 Q303.926 1456.81 304.806 1455.08 Q305.709 1453.32 305.709 1451.63 Q305.709 1448.87 303.764 1447.14 Q301.843 1445.4 298.741 1445.4 Q296.542 1445.4 294.088 1446.17 Q291.658 1446.93 288.88 1448.48 L288.88 1443.76 Q291.704 1442.62 294.158 1442.05 Q296.611 1441.47 298.648 1441.47 Q304.019 1441.47 307.213 1444.15 Q310.408 1446.84 310.408 1451.33 Q310.408 1453.46 309.597 1455.38 Q308.81 1457.28 306.704 1459.87 Q306.125 1460.54 303.023 1463.76 Q299.922 1466.95 294.273 1472.72 Z" fill="#000000" fill-rule="evenodd" fill-opacity="1" /><path clip-path="url(#clip800)" d="M 0 0 M672.79 1461.77 L685.266 1461.77 L685.266 1465.56 L672.79 1465.56 L672.79 1461.77 Z" fill="#000000" fill-rule="evenodd" fill-opacity="1" /><path clip-path="url(#clip800)" d="M 0 0 M691.146 1472.72 L698.785 1472.72 L698.785 1446.35 L690.475 1448.02 L690.475 1443.76 L698.739 1442.09 L703.414 1442.09 L703.414 1472.72 L711.053 1472.72 L711.053 1476.65 L691.146 1476.65 L691.146 1472.72 Z" fill="#000000" fill-rule="evenodd" fill-opacity="1" /><path clip-path="url(#clip800)" d="M 0 0 M1092.2 1445.17 Q1088.59 1445.17 1086.76 1448.74 Q1084.95 1452.28 1084.95 1459.41 Q1084.95 1466.51 1086.76 1470.08 Q1088.59 1473.62 1092.2 1473.62 Q1095.83 1473.62 1097.64 1470.08 Q1099.47 1466.51 1099.47 1459.41 Q1099.47 1452.28 1097.64 1448.74 Q1095.83 1445.17 1092.2 1445.17 M1092.2 1441.47 Q1098.01 1441.47 1101.06 1446.07 Q1104.14 1450.66 1104.14 1459.41 Q1104.14 1468.13 1101.06 1472.74 Q1098.01 1477.32 1092.2 1477.32 Q1086.39 1477.32 1083.31 1472.74 Q1080.25 1468.13 1080.25 1459.41 Q1080.25 1450.66 1083.31 1446.07 Q1086.39 1441.47 1092.2 1441.47 Z" fill="#000000" fill-rule="evenodd" fill-opacity="1" /><path clip-path="url(#clip800)" d="M 0 0 M1482.85 1472.72 L1490.49 1472.72 L1490.49 1446.35 L1482.18 1448.02 L1482.18 1443.76 L1490.45 1442.09 L1495.12 1442.09 L1495.12 1472.72 L1502.76 1472.72 L1502.76 1476.65 L1482.85 1476.65 L1482.85 1472.72 Z" fill="#000000" fill-rule="evenodd" fill-opacity="1" /><path clip-path="url(#clip800)" d="M 0 0 M1887.4 1472.72 L1903.72 1472.72 L1903.72 1476.65 L1881.78 1476.65 L1881.78 1472.72 Q1884.44 1469.96 1889.02 1465.33 Q1893.63 1460.68 1894.81 1459.34 Q1897.05 1456.81 1897.93 1455.08 Q1898.84 1453.32 1898.84 1451.63 Q1898.84 1448.87 1896.89 1447.14 Q1894.97 1445.4 1891.87 1445.4 Q1889.67 1445.4 1887.21 1446.17 Q1884.78 1446.93 1882.01 1448.48 L1882.01 1443.76 Q1884.83 1442.62 1887.28 1442.05 Q1889.74 1441.47 1891.78 1441.47 Q1897.15 1441.47 1900.34 1444.15 Q1903.53 1446.84 1903.53 1451.33 Q1903.53 1453.46 1902.72 1455.38 Q1901.94 1457.28 1899.83 1459.87 Q1899.25 1460.54 1896.15 1463.76 Q1893.05 1466.95 1887.4 1472.72 Z" fill="#000000" fill-rule="evenodd" fill-opacity="1" /><path clip-path="url(#clip800)" d="M 0 0 M2297.27 1458.02 Q2300.63 1458.74 2302.5 1461 Q2304.4 1463.27 2304.4 1466.61 Q2304.4 1471.72 2300.88 1474.52 Q2297.36 1477.32 2290.88 1477.32 Q2288.71 1477.32 2286.39 1476.88 Q2284.1 1476.47 2281.65 1475.61 L2281.65 1471.1 Q2283.59 1472.23 2285.9 1472.81 Q2288.22 1473.39 2290.74 1473.39 Q2295.14 1473.39 2297.43 1471.65 Q2299.75 1469.92 2299.75 1466.61 Q2299.75 1463.55 2297.59 1461.84 Q2295.46 1460.1 2291.65 1460.1 L2287.62 1460.1 L2287.62 1456.26 L2291.83 1456.26 Q2295.28 1456.26 2297.11 1454.89 Q2298.94 1453.5 2298.94 1450.91 Q2298.94 1448.25 2297.04 1446.84 Q2295.16 1445.4 2291.65 1445.4 Q2289.72 1445.4 2287.52 1445.82 Q2285.33 1446.24 2282.69 1447.11 L2282.69 1442.95 Q2285.35 1442.21 2287.66 1441.84 Q2290 1441.47 2292.06 1441.47 Q2297.39 1441.47 2300.49 1443.9 Q2303.59 1446.3 2303.59 1450.43 Q2303.59 1453.3 2301.95 1455.29 Q2300.3 1457.25 2297.27 1458.02 Z" fill="#000000" fill-rule="evenodd" fill-opacity="1" /><path clip-path="url(#clip800)" d="M 0 0 M138.205 1408.98 Q134.593 1408.98 132.765 1412.54 Q130.959 1416.08 130.959 1423.21 Q130.959 1430.32 132.765 1433.89 Q134.593 1437.43 138.205 1437.43 Q141.839 1437.43 143.644 1433.89 Q145.473 1430.32 145.473 1423.21 Q145.473 1416.08 143.644 1412.54 Q141.839 1408.98 138.205 1408.98 M138.205 1405.27 Q144.015 1405.27 147.07 1409.88 Q150.149 1414.46 150.149 1423.21 Q150.149 1431.94 147.07 1436.55 Q144.015 1441.13 138.205 1441.13 Q132.394 1441.13 129.316 1436.55 Q126.26 1431.94 126.26 1423.21 Q126.26 1414.46 129.316 1409.88 Q132.394 1405.27 138.205 1405.27 Z" fill="#000000" fill-rule="evenodd" fill-opacity="1" /><path clip-path="url(#clip800)" d="M 0 0 M155.218 1434.58 L160.103 1434.58 L160.103 1440.46 L155.218 1440.46 L155.218 1434.58 Z" fill="#000000" fill-rule="evenodd" fill-opacity="1" /><path clip-path="url(#clip800)" d="M 0 0 M175.172 1408.98 Q171.561 1408.98 169.732 1412.54 Q167.927 1416.08 167.927 1423.21 Q167.927 1430.32 169.732 1433.89 Q171.561 1437.43 175.172 1437.43 Q178.806 1437.43 180.612 1433.89 Q182.44 1430.32 182.44 1423.21 Q182.44 1416.08 180.612 1412.54 Q178.806 1408.98 175.172 1408.98 M175.172 1405.27 Q180.982 1405.27 184.038 1409.88 Q187.116 1414.46 187.116 1423.21 Q187.116 1431.94 184.038 1436.55 Q180.982 1441.13 175.172 1441.13 Q169.362 1441.13 166.283 1436.55 Q163.228 1431.94 163.228 1423.21 Q163.228 1414.46 166.283 1409.88 Q169.362 1405.27 175.172 1405.27 Z" fill="#000000" fill-rule="evenodd" fill-opacity="1" /><path clip-path="url(#clip800)" d="M 0 0 M202.186 1408.98 Q198.575 1408.98 196.746 1412.54 Q194.94 1416.08 194.94 1423.21 Q194.94 1430.32 196.746 1433.89 Q198.575 1437.43 202.186 1437.43 Q205.82 1437.43 207.625 1433.89 Q209.454 1430.32 209.454 1423.21 Q209.454 1416.08 207.625 1412.54 Q205.82 1408.98 202.186 1408.98 M202.186 1405.27 Q207.996 1405.27 211.051 1409.88 Q214.13 1414.46 214.13 1423.21 Q214.13 1431.94 211.051 1436.55 Q207.996 1441.13 202.186 1441.13 Q196.376 1441.13 193.297 1436.55 Q190.241 1431.94 190.241 1423.21 Q190.241 1414.46 193.297 1409.88 Q196.376 1405.27 202.186 1405.27 Z" fill="#000000" fill-rule="evenodd" fill-opacity="1" /><path clip-path="url(#clip800)" d="M 0 0 M140.797 1300.35 Q137.186 1300.35 135.357 1303.91 Q133.552 1307.45 133.552 1314.58 Q133.552 1321.69 135.357 1325.25 Q137.186 1328.8 140.797 1328.8 Q144.431 1328.8 146.237 1325.25 Q148.066 1321.69 148.066 1314.58 Q148.066 1307.45 146.237 1303.91 Q144.431 1300.35 140.797 1300.35 M140.797 1296.64 Q146.607 1296.64 149.663 1301.25 Q152.741 1305.83 152.741 1314.58 Q152.741 1323.31 149.663 1327.92 Q146.607 1332.5 140.797 1332.5 Q134.987 1332.5 131.908 1327.92 Q128.853 1323.31 128.853 1314.58 Q128.853 1305.83 131.908 1301.25 Q134.987 1296.64 140.797 1296.64 Z" fill="#000000" fill-rule="evenodd" fill-opacity="1" /><path clip-path="url(#clip800)" d="M 0 0 M157.811 1325.95 L162.695 1325.95 L162.695 1331.83 L157.811 1331.83 L157.811 1325.95 Z" fill="#000000" fill-rule="evenodd" fill-opacity="1" /><path clip-path="url(#clip800)" d="M 0 0 M171.792 1327.89 L188.112 1327.89 L188.112 1331.83 L166.167 1331.83 L166.167 1327.89 Q168.829 1325.14 173.413 1320.51 Q178.019 1315.86 179.2 1314.51 Q181.445 1311.99 182.325 1310.25 Q183.227 1308.49 183.227 1306.8 Q183.227 1304.05 181.283 1302.31 Q179.362 1300.58 176.26 1300.58 Q174.061 1300.58 171.607 1301.34 Q169.177 1302.11 166.399 1303.66 L166.399 1298.93 Q169.223 1297.8 171.677 1297.22 Q174.13 1296.64 176.167 1296.64 Q181.538 1296.64 184.732 1299.33 Q187.926 1302.01 187.926 1306.5 Q187.926 1308.63 187.116 1310.55 Q186.329 1312.45 184.223 1315.05 Q183.644 1315.72 180.542 1318.93 Q177.44 1322.13 171.792 1327.89 Z" fill="#000000" fill-rule="evenodd" fill-opacity="1" /><path clip-path="url(#clip800)" d="M 0 0 M193.227 1297.27 L211.584 1297.27 L211.584 1301.2 L197.51 1301.2 L197.51 1309.68 Q198.528 1309.33 199.547 1309.17 Q200.565 1308.98 201.584 1308.98 Q207.371 1308.98 210.75 1312.15 Q214.13 1315.32 214.13 1320.74 Q214.13 1326.32 210.658 1329.42 Q207.186 1332.5 200.866 1332.5 Q198.69 1332.5 196.422 1332.13 Q194.176 1331.76 191.769 1331.02 L191.769 1326.32 Q193.852 1327.45 196.075 1328.01 Q198.297 1328.56 200.774 1328.56 Q204.778 1328.56 207.116 1326.46 Q209.454 1324.35 209.454 1320.74 Q209.454 1317.13 207.116 1315.02 Q204.778 1312.92 200.774 1312.92 Q198.899 1312.92 197.024 1313.33 Q195.172 1313.75 193.227 1314.63 L193.227 1297.27 Z" fill="#000000" fill-rule="evenodd" fill-opacity="1" /><path clip-path="url(#clip800)" d="M 0 0 M139.2 1191.71 Q135.589 1191.71 133.76 1195.28 Q131.955 1198.82 131.955 1205.95 Q131.955 1213.06 133.76 1216.62 Q135.589 1220.16 139.2 1220.16 Q142.834 1220.16 144.64 1216.62 Q146.468 1213.06 146.468 1205.95 Q146.468 1198.82 144.64 1195.28 Q142.834 1191.71 139.2 1191.71 M139.2 1188.01 Q145.01 1188.01 148.066 1192.62 Q151.144 1197.2 151.144 1205.95 Q151.144 1214.68 148.066 1219.28 Q145.01 1223.87 139.2 1223.87 Q133.39 1223.87 130.311 1219.28 Q127.256 1214.68 127.256 1205.95 Q127.256 1197.2 130.311 1192.62 Q133.39 1188.01 139.2 1188.01 Z" fill="#000000" fill-rule="evenodd" fill-opacity="1" /><path clip-path="url(#clip800)" d="M 0 0 M156.214 1217.32 L161.098 1217.32 L161.098 1223.2 L156.214 1223.2 L156.214 1217.32 Z" fill="#000000" fill-rule="evenodd" fill-opacity="1" /><path clip-path="url(#clip800)" d="M 0 0 M166.214 1188.64 L184.57 1188.64 L184.57 1192.57 L170.496 1192.57 L170.496 1201.04 Q171.515 1200.7 172.533 1200.53 Q173.552 1200.35 174.57 1200.35 Q180.357 1200.35 183.737 1203.52 Q187.116 1206.69 187.116 1212.11 Q187.116 1217.69 183.644 1220.79 Q180.172 1223.87 173.852 1223.87 Q171.677 1223.87 169.408 1223.5 Q167.163 1223.13 164.755 1222.39 L164.755 1217.69 Q166.839 1218.82 169.061 1219.38 Q171.283 1219.93 173.76 1219.93 Q177.765 1219.93 180.102 1217.83 Q182.44 1215.72 182.44 1212.11 Q182.44 1208.5 180.102 1206.39 Q177.765 1204.28 173.76 1204.28 Q171.885 1204.28 170.01 1204.7 Q168.158 1205.12 166.214 1206 L166.214 1188.64 Z" fill="#000000" fill-rule="evenodd" fill-opacity="1" /><path clip-path="url(#clip800)" d="M 0 0 M202.186 1191.71 Q198.575 1191.71 196.746 1195.28 Q194.94 1198.82 194.94 1205.95 Q194.94 1213.06 196.746 1216.62 Q198.575 1220.16 202.186 1220.16 Q205.82 1220.16 207.625 1216.62 Q209.454 1213.06 209.454 1205.95 Q209.454 1198.82 207.625 1195.28 Q205.82 1191.71 202.186 1191.71 M202.186 1188.01 Q207.996 1188.01 211.051 1192.62 Q214.13 1197.2 214.13 1205.95 Q214.13 1214.68 211.051 1219.28 Q207.996 1223.87 202.186 1223.87 Q196.376 1223.87 193.297 1219.28 Q190.241 1214.68 190.241 1205.95 Q190.241 1197.2 193.297 1192.62 Q196.376 1188.01 202.186 1188.01 Z" fill="#000000" fill-rule="evenodd" fill-opacity="1" /><path clip-path="url(#clip800)" d="M 0 0 M140.103 1083.08 Q136.492 1083.08 134.663 1086.65 Q132.857 1090.19 132.857 1097.32 Q132.857 1104.42 134.663 1107.99 Q136.492 1111.53 140.103 1111.53 Q143.737 1111.53 145.542 1107.99 Q147.371 1104.42 147.371 1097.32 Q147.371 1090.19 145.542 1086.65 Q143.737 1083.08 140.103 1083.08 M140.103 1079.38 Q145.913 1079.38 148.968 1083.98 Q152.047 1088.57 152.047 1097.32 Q152.047 1106.05 148.968 1110.65 Q145.913 1115.23 140.103 1115.23 Q134.293 1115.23 131.214 1110.65 Q128.158 1106.05 128.158 1097.32 Q128.158 1088.57 131.214 1083.98 Q134.293 1079.38 140.103 1079.38 Z" fill="#000000" fill-rule="evenodd" fill-opacity="1" /><path clip-path="url(#clip800)" d="M 0 0 M157.116 1108.68 L162.001 1108.68 L162.001 1114.56 L157.116 1114.56 L157.116 1108.68 Z" fill="#000000" fill-rule="evenodd" fill-opacity="1" /><path clip-path="url(#clip800)" d="M 0 0 M165.89 1080 L188.112 1080 L188.112 1081.99 L175.565 1114.56 L170.681 1114.56 L182.487 1083.94 L165.89 1083.94 L165.89 1080 Z" fill="#000000" fill-rule="evenodd" fill-opacity="1" /><path clip-path="url(#clip800)" d="M 0 0 M193.227 1080 L211.584 1080 L211.584 1083.94 L197.51 1083.94 L197.51 1092.41 Q198.528 1092.06 199.547 1091.9 Q200.565 1091.72 201.584 1091.72 Q207.371 1091.72 210.75 1094.89 Q214.13 1098.06 214.13 1103.48 Q214.13 1109.05 210.658 1112.16 Q207.186 1115.23 200.866 1115.23 Q198.69 1115.23 196.422 1114.86 Q194.176 1114.49 191.769 1113.75 L191.769 1109.05 Q193.852 1110.19 196.075 1110.74 Q198.297 1111.3 200.774 1111.3 Q204.778 1111.3 207.116 1109.19 Q209.454 1107.09 209.454 1103.48 Q209.454 1099.86 207.116 1097.76 Q204.778 1095.65 200.774 1095.65 Q198.899 1095.65 197.024 1096.07 Q195.172 1096.48 193.227 1097.36 L193.227 1080 Z" fill="#000000" fill-rule="evenodd" fill-opacity="1" /><path clip-path="url(#clip800)" d="M 0 0 M130.242 1002 L137.88 1002 L137.88 975.631 L129.57 977.297 L129.57 973.038 L137.834 971.371 L142.51 971.371 L142.51 1002 L150.149 1002 L150.149 1005.93 L130.242 1005.93 L130.242 1002 Z" fill="#000000" fill-rule="evenodd" fill-opacity="1" /><path clip-path="url(#clip800)" d="M 0 0 M155.218 1000.05 L160.103 1000.05 L160.103 1005.93 L155.218 1005.93 L155.218 1000.05 Z" fill="#000000" fill-rule="evenodd" fill-opacity="1" /><path clip-path="url(#clip800)" d="M 0 0 M175.172 974.45 Q171.561 974.45 169.732 978.015 Q167.927 981.557 167.927 988.686 Q167.927 995.793 169.732 999.357 Q171.561 1002.9 175.172 1002.9 Q178.806 1002.9 180.612 999.357 Q182.44 995.793 182.44 988.686 Q182.44 981.557 180.612 978.015 Q178.806 974.45 175.172 974.45 M175.172 970.746 Q180.982 970.746 184.038 975.353 Q187.116 979.936 187.116 988.686 Q187.116 997.413 184.038 1002.02 Q180.982 1006.6 175.172 1006.6 Q169.362 1006.6 166.283 1002.02 Q163.228 997.413 163.228 988.686 Q163.228 979.936 166.283 975.353 Q169.362 970.746 175.172 970.746 Z" fill="#000000" fill-rule="evenodd" fill-opacity="1" /><path clip-path="url(#clip800)" d="M 0 0 M202.186 974.45 Q198.575 974.45 196.746 978.015 Q194.94 981.557 194.94 988.686 Q194.94 995.793 196.746 999.357 Q198.575 1002.9 202.186 1002.9 Q205.82 1002.9 207.625 999.357 Q209.454 995.793 209.454 988.686 Q209.454 981.557 207.625 978.015 Q205.82 974.45 202.186 974.45 M202.186 970.746 Q207.996 970.746 211.051 975.353 Q214.13 979.936 214.13 988.686 Q214.13 997.413 211.051 1002.02 Q207.996 1006.6 202.186 1006.6 Q196.376 1006.6 193.297 1002.02 Q190.241 997.413 190.241 988.686 Q190.241 979.936 193.297 975.353 Q196.376 970.746 202.186 970.746 Z" fill="#000000" fill-rule="evenodd" fill-opacity="1" /><path clip-path="url(#clip800)" d="M 0 0 M920.775 816.755 L920.775 825.383 Q916.643 821.535 911.944 819.631 Q907.285 817.727 902.019 817.727 Q891.649 817.727 886.14 824.087 Q880.63 830.406 880.63 842.397 Q880.63 854.347 886.14 860.707 Q891.649 867.026 902.019 867.026 Q907.285 867.026 911.944 865.122 Q916.643 863.218 920.775 859.37 L920.775 867.917 Q916.481 870.834 911.66 872.292 Q906.88 873.751 901.533 873.751 Q887.8 873.751 879.901 865.365 Q872.002 856.94 872.002 842.397 Q872.002 827.814 879.901 819.428 Q887.8 811.002 901.533 811.002 Q906.961 811.002 911.741 812.461 Q916.562 813.878 920.775 816.755 Z" fill="#000000" fill-rule="evenodd" fill-opacity="1" /><path clip-path="url(#clip800)" d="M 0 0 M927.823 854.671 L927.823 827.206 L935.277 827.206 L935.277 854.387 Q935.277 860.828 937.789 864.069 Q940.3 867.269 945.323 867.269 Q951.359 867.269 954.843 863.421 Q958.367 859.573 958.367 852.929 L958.367 827.206 L965.821 827.206 L965.821 872.576 L958.367 872.576 L958.367 865.608 Q955.653 869.74 952.048 871.766 Q948.483 873.751 943.743 873.751 Q935.925 873.751 931.874 868.89 Q927.823 864.029 927.823 854.671 M946.579 826.112 L946.579 826.112 Z" fill="#000000" fill-rule="evenodd" fill-opacity="1" /><path clip-path="url(#clip800)" d="M 0 0 M1008.96 835.915 Q1011.76 830.892 1015.65 828.502 Q1019.54 826.112 1024.8 826.112 Q1031.89 826.112 1035.74 831.095 Q1039.59 836.037 1039.59 845.192 L1039.59 872.576 L1032.09 872.576 L1032.09 845.435 Q1032.09 838.913 1029.78 835.753 Q1027.48 832.594 1022.74 832.594 Q1016.94 832.594 1013.58 836.442 Q1010.22 840.29 1010.22 846.934 L1010.22 872.576 L1002.72 872.576 L1002.72 845.435 Q1002.72 838.872 1000.42 835.753 Q998.107 832.594 993.286 832.594 Q987.574 832.594 984.212 836.482 Q980.85 840.331 980.85 846.934 L980.85 872.576 L973.356 872.576 L973.356 827.206 L980.85 827.206 L980.85 834.254 Q983.402 830.082 986.967 828.097 Q990.531 826.112 995.433 826.112 Q1000.38 826.112 1003.82 828.624 Q1007.3 831.135 1008.96 835.915 Z" fill="#000000" fill-rule="evenodd" fill-opacity="1" /><path clip-path="url(#clip800)" d="M 0 0 M1046.64 854.671 L1046.64 827.206 L1054.09 827.206 L1054.09 854.387 Q1054.09 860.828 1056.6 864.069 Q1059.11 867.269 1064.14 867.269 Q1070.17 867.269 1073.66 863.421 Q1077.18 859.573 1077.18 852.929 L1077.18 827.206 L1084.63 827.206 L1084.63 872.576 L1077.18 872.576 L1077.18 865.608 Q1074.47 869.74 1070.86 871.766 Q1067.3 873.751 1062.56 873.751 Q1054.74 873.751 1050.69 868.89 Q1046.64 864.029 1046.64 854.671 M1065.39 826.112 L1065.39 826.112 Z" fill="#000000" fill-rule="evenodd" fill-opacity="1" /><path clip-path="url(#clip800)" d="M 0 0 M1092.45 809.544 L1099.91 809.544 L1099.91 872.576 L1092.45 872.576 L1092.45 809.544 Z" fill="#000000" fill-rule="evenodd" fill-opacity="1" /><path clip-path="url(#clip800)" d="M 0 0 M1128.34 849.769 Q1119.31 849.769 1115.83 851.835 Q1112.34 853.901 1112.34 858.884 Q1112.34 862.854 1114.93 865.203 Q1117.57 867.512 1122.06 867.512 Q1128.26 867.512 1131.99 863.137 Q1135.76 858.722 1135.76 851.43 L1135.76 849.769 L1128.34 849.769 M1143.21 846.691 L1143.21 872.576 L1135.76 872.576 L1135.76 865.689 Q1133.2 869.821 1129.4 871.806 Q1125.59 873.751 1120.08 873.751 Q1113.11 873.751 1108.98 869.862 Q1104.89 865.933 1104.89 859.37 Q1104.89 851.714 1109.99 847.825 Q1115.14 843.936 1125.31 843.936 L1135.76 843.936 L1135.76 843.207 Q1135.76 838.062 1132.35 835.267 Q1128.99 832.432 1122.87 832.432 Q1118.99 832.432 1115.3 833.363 Q1111.61 834.295 1108.21 836.158 L1108.21 829.272 Q1112.3 827.692 1116.15 826.922 Q1120 826.112 1123.64 826.112 Q1133.49 826.112 1138.35 831.216 Q1143.21 836.32 1143.21 846.691 Z" fill="#000000" fill-rule="evenodd" fill-opacity="1" /><path clip-path="url(#clip800)" d="M 0 0 M1158.4 814.324 L1158.4 827.206 L1173.75 827.206 L1173.75 832.999 L1158.4 832.999 L1158.4 857.628 Q1158.4 863.178 1159.9 864.758 Q1161.44 866.338 1166.1 866.338 L1173.75 866.338 L1173.75 872.576 L1166.1 872.576 Q1157.47 872.576 1154.19 869.376 Q1150.91 866.135 1150.91 857.628 L1150.91 832.999 L1145.44 832.999 L1145.44 827.206 L1150.91 827.206 L1150.91 814.324 L1158.4 814.324 Z" fill="#000000" fill-rule="evenodd" fill-opacity="1" /><path clip-path="url(#clip800)" d="M 0 0 M1181.57 827.206 L1189.03 827.206 L1189.03 872.576 L1181.57 872.576 L1181.57 827.206 M1181.57 809.544 L1189.03 809.544 L1189.03 818.983 L1181.57 818.983 L1181.57 809.544 Z" fill="#000000" fill-rule="evenodd" fill-opacity="1" /><path clip-path="url(#clip800)" d="M 0 0 M1191.5 827.206 L1199.4 827.206 L1213.57 865.284 L1227.75 827.206 L1235.65 827.206 L1218.64 872.576 L1208.51 872.576 L1191.5 827.206 Z" fill="#000000" fill-rule="evenodd" fill-opacity="1" /><path clip-path="url(#clip800)" d="M 0 0 M1282.28 848.028 L1282.28 851.673 L1248.01 851.673 Q1248.49 859.37 1252.62 863.421 Q1256.8 867.431 1264.21 867.431 Q1268.5 867.431 1272.51 866.378 Q1276.57 865.325 1280.54 863.218 L1280.54 870.267 Q1276.53 871.968 1272.31 872.86 Q1268.1 873.751 1263.76 873.751 Q1252.91 873.751 1246.55 867.431 Q1240.23 861.112 1240.23 850.337 Q1240.23 839.197 1246.22 832.675 Q1252.26 826.112 1262.47 826.112 Q1271.62 826.112 1276.93 832.026 Q1282.28 837.9 1282.28 848.028 M1274.82 845.84 Q1274.74 839.723 1271.38 836.077 Q1268.06 832.432 1262.55 832.432 Q1256.31 832.432 1252.54 835.956 Q1248.82 839.48 1248.25 845.881 L1274.82 845.84 Z" fill="#000000" fill-rule="evenodd" fill-opacity="1" /><path clip-path="url(#clip800)" d="M 0 0 M1346.32 834.092 L1346.32 809.544 L1353.78 809.544 L1353.78 872.576 L1346.32 872.576 L1346.32 865.77 Q1343.97 869.821 1340.37 871.806 Q1336.8 873.751 1331.78 873.751 Q1323.56 873.751 1318.37 867.188 Q1313.23 860.626 1313.23 849.931 Q1313.23 839.237 1318.37 832.675 Q1323.56 826.112 1331.78 826.112 Q1336.8 826.112 1340.37 828.097 Q1343.97 830.042 1346.32 834.092 M1320.92 849.931 Q1320.92 858.155 1324.29 862.854 Q1327.69 867.512 1333.6 867.512 Q1339.52 867.512 1342.92 862.854 Q1346.32 858.155 1346.32 849.931 Q1346.32 841.708 1342.92 837.05 Q1339.52 832.351 1333.6 832.351 Q1327.69 832.351 1324.29 837.05 Q1320.92 841.708 1320.92 849.931 Z" fill="#000000" fill-rule="evenodd" fill-opacity="1" /><path clip-path="url(#clip800)" d="M 0 0 M1361.59 827.206 L1369.05 827.206 L1369.05 872.576 L1361.59 872.576 L1361.59 827.206 M1361.59 809.544 L1369.05 809.544 L1369.05 818.983 L1361.59 818.983 L1361.59 809.544 Z" fill="#000000" fill-rule="evenodd" fill-opacity="1" /><path clip-path="url(#clip800)" d="M 0 0 M1405.79 828.543 L1405.79 835.591 Q1402.63 833.971 1399.23 833.161 Q1395.82 832.351 1392.18 832.351 Q1386.63 832.351 1383.83 834.052 Q1381.08 835.753 1381.08 839.156 Q1381.08 841.749 1383.06 843.247 Q1385.05 844.706 1391.04 846.043 L1393.6 846.61 Q1401.54 848.311 1404.86 851.43 Q1408.22 854.509 1408.22 860.059 Q1408.22 866.378 1403.2 870.064 Q1398.21 873.751 1389.46 873.751 Q1385.82 873.751 1381.85 873.022 Q1377.92 872.333 1373.54 870.915 L1373.54 863.218 Q1377.68 865.365 1381.69 866.459 Q1385.7 867.512 1389.63 867.512 Q1394.89 867.512 1397.73 865.73 Q1400.56 863.907 1400.56 860.626 Q1400.56 857.588 1398.5 855.967 Q1396.47 854.347 1389.55 852.848 L1386.95 852.24 Q1380.03 850.782 1376.95 847.784 Q1373.87 844.746 1373.87 839.48 Q1373.87 833.08 1378.41 829.596 Q1382.94 826.112 1391.29 826.112 Q1395.42 826.112 1399.07 826.72 Q1402.71 827.327 1405.79 828.543 Z" fill="#000000" fill-rule="evenodd" fill-opacity="1" /><path clip-path="url(#clip800)" d="M 0 0 M1423.41 814.324 L1423.41 827.206 L1438.76 827.206 L1438.76 832.999 L1423.41 832.999 L1423.41 857.628 Q1423.41 863.178 1424.91 864.758 Q1426.45 866.338 1431.11 866.338 L1438.76 866.338 L1438.76 872.576 L1431.11 872.576 Q1422.48 872.576 1419.2 869.376 Q1415.92 866.135 1415.92 857.628 L1415.92 832.999 L1410.45 832.999 L1410.45 827.206 L1415.92 827.206 L1415.92 814.324 L1423.41 814.324 Z" fill="#000000" fill-rule="evenodd" fill-opacity="1" /><path clip-path="url(#clip800)" d="M 0 0 M1472.87 834.173 Q1471.62 833.444 1470.12 833.12 Q1468.66 832.756 1466.88 832.756 Q1460.56 832.756 1457.16 836.888 Q1453.79 840.979 1453.79 848.676 L1453.79 872.576 L1446.3 872.576 L1446.3 827.206 L1453.79 827.206 L1453.79 834.254 Q1456.14 830.123 1459.91 828.138 Q1463.68 826.112 1469.06 826.112 Q1469.83 826.112 1470.77 826.234 Q1471.7 826.315 1472.83 826.517 L1472.87 834.173 Z" fill="#000000" fill-rule="evenodd" fill-opacity="1" /><path clip-path="url(#clip800)" d="M 0 0 M1480.69 827.206 L1488.14 827.206 L1488.14 872.576 L1480.69 872.576 L1480.69 827.206 M1480.69 809.544 L1488.14 809.544 L1488.14 818.983 L1480.69 818.983 L1480.69 809.544 Z" fill="#000000" fill-rule="evenodd" fill-opacity="1" /><path clip-path="url(#clip800)" d="M 0 0 M1528.53 849.931 Q1528.53 841.708 1525.13 837.05 Q1521.77 832.351 1515.85 832.351 Q1509.94 832.351 1506.54 837.05 Q1503.17 841.708 1503.17 849.931 Q1503.17 858.155 1506.54 862.854 Q1509.94 867.512 1515.85 867.512 Q1521.77 867.512 1525.13 862.854 Q1528.53 858.155 1528.53 849.931 M1503.17 834.092 Q1505.52 830.042 1509.09 828.097 Q1512.69 826.112 1517.68 826.112 Q1525.94 826.112 1531.08 832.675 Q1536.27 839.237 1536.27 849.931 Q1536.27 860.626 1531.08 867.188 Q1525.94 873.751 1517.68 873.751 Q1512.69 873.751 1509.09 871.806 Q1505.52 869.821 1503.17 865.77 L1503.17 872.576 L1495.68 872.576 L1495.68 809.544 L1503.17 809.544 L1503.17 834.092 Z" fill="#000000" fill-rule="evenodd" fill-opacity="1" /><path clip-path="url(#clip800)" d="M 0 0 M1543.32 854.671 L1543.32 827.206 L1550.77 827.206 L1550.77 854.387 Q1550.77 860.828 1553.28 864.069 Q1555.79 867.269 1560.82 867.269 Q1566.85 867.269 1570.34 863.421 Q1573.86 859.573 1573.86 852.929 L1573.86 827.206 L1581.32 827.206 L1581.32 872.576 L1573.86 872.576 L1573.86 865.608 Q1571.15 869.74 1567.54 871.766 Q1563.98 873.751 1559.24 873.751 Q1551.42 873.751 1547.37 868.89 Q1543.32 864.029 1543.32 854.671 M1562.07 826.112 L1562.07 826.112 Z" fill="#000000" fill-rule="evenodd" fill-opacity="1" /><path clip-path="url(#clip800)" d="M 0 0 M1596.51 814.324 L1596.51 827.206 L1611.86 827.206 L1611.86 832.999 L1596.51 832.999 L1596.51 857.628 Q1596.51 863.178 1598.01 864.758 Q1599.54 866.338 1604.2 866.338 L1611.86 866.338 L1611.86 872.576 L1604.2 872.576 Q1595.57 872.576 1592.29 869.376 Q1589.01 866.135 1589.01 857.628 L1589.01 832.999 L1583.54 832.999 L1583.54 827.206 L1589.01 827.206 L1589.01 814.324 L1596.51 814.324 Z" fill="#000000" fill-rule="evenodd" fill-opacity="1" /><path clip-path="url(#clip800)" d="M 0 0 M1619.68 827.206 L1627.13 827.206 L1627.13 872.576 L1619.68 872.576 L1619.68 827.206 M1619.68 809.544 L1627.13 809.544 L1627.13 818.983 L1619.68 818.983 L1619.68 809.544 Z" fill="#000000" fill-rule="evenodd" fill-opacity="1" /><path clip-path="url(#clip800)" d="M 0 0 M1652.53 832.432 Q1646.53 832.432 1643.05 837.131 Q1639.57 841.789 1639.57 849.931 Q1639.57 858.074 1643.01 862.773 Q1646.49 867.431 1652.53 867.431 Q1658.49 867.431 1661.97 862.732 Q1665.45 858.033 1665.45 849.931 Q1665.45 841.87 1661.97 837.171 Q1658.49 832.432 1652.53 832.432 M1652.53 826.112 Q1662.25 826.112 1667.8 832.432 Q1673.35 838.751 1673.35 849.931 Q1673.35 861.071 1667.8 867.431 Q1662.25 873.751 1652.53 873.751 Q1642.77 873.751 1637.22 867.431 Q1631.71 861.071 1631.71 849.931 Q1631.71 838.751 1637.22 832.432 Q1642.77 826.112 1652.53 826.112 Z" fill="#000000" fill-rule="evenodd" fill-opacity="1" /><path clip-path="url(#clip800)" d="M 0 0 M1718.88 845.192 L1718.88 872.576 L1711.43 872.576 L1711.43 845.435 Q1711.43 838.994 1708.92 835.794 Q1706.41 832.594 1701.38 832.594 Q1695.35 832.594 1691.86 836.442 Q1688.38 840.29 1688.38 846.934 L1688.38 872.576 L1680.89 872.576 L1680.89 827.206 L1688.38 827.206 L1688.38 834.254 Q1691.05 830.163 1694.66 828.138 Q1698.31 826.112 1703.04 826.112 Q1710.86 826.112 1714.87 830.973 Q1718.88 835.794 1718.88 845.192 Z" fill="#000000" fill-rule="evenodd" fill-opacity="1" /><path clip-path="url(#clip800)" d="M 0 0 M1312.06 1520.4 L1299.17 1537.74 L1312.73 1556.04 L1305.82 1556.04 L1295.44 1542.04 L1285.07 1556.04 L1278.16 1556.04 L1292.01 1537.39 L1279.34 1520.4 L1286.24 1520.4 L1295.7 1533.1 L1305.15 1520.4 L1312.06 1520.4 Z" fill="#000000" fill-rule="evenodd" fill-opacity="1" /><path clip-path="url(#clip800)" d="M 0 0 M40.4842 1225.22 L40.4842 1197.91 L45.895 1197.91 L45.895 1218.79 L59.8996 1218.79 L59.8996 1199.95 L65.3104 1199.95 L65.3104 1218.79 L88.0042 1218.79 L88.0042 1225.22 L40.4842 1225.22 Z" fill="#000000" fill-rule="evenodd" fill-opacity="1" /><path clip-path="url(#clip800)" d="M 0 0 M38.5426 1177.7 Q45.8632 1181.97 53.0246 1184.04 Q60.186 1186.11 67.5384 1186.11 Q74.8908 1186.11 82.1159 1184.04 Q89.3091 1181.94 96.5979 1177.7 L96.5979 1182.79 Q89.1182 1187.57 81.8931 1189.96 Q74.668 1192.31 67.5384 1192.31 Q60.4406 1192.31 53.2474 1189.96 Q46.0542 1187.6 38.5426 1182.79 L38.5426 1177.7 Z" fill="#000000" fill-rule="evenodd" fill-opacity="1" /><path clip-path="url(#clip800)" d="M 0 0 M52.3562 1141.93 L69.7028 1154.82 L88.0042 1141.26 L88.0042 1148.17 L73.9996 1158.54 L88.0042 1168.92 L88.0042 1175.82 L69.3526 1161.98 L52.3562 1174.65 L52.3562 1167.74 L65.0558 1158.29 L52.3562 1148.83 L52.3562 1141.93 Z" fill="#000000" fill-rule="evenodd" fill-opacity="1" /><path clip-path="url(#clip800)" d="M 0 0 M38.5426 1136.04 L38.5426 1130.95 Q46.0542 1126.17 53.2474 1123.82 Q60.4406 1121.43 67.5384 1121.43 Q74.668 1121.43 81.8931 1123.82 Q89.1182 1126.17 96.5979 1130.95 L96.5979 1136.04 Q89.3091 1131.81 82.1159 1129.74 Q74.8908 1127.64 67.5384 1127.64 Q60.186 1127.64 53.0246 1129.74 Q45.8632 1131.81 38.5426 1136.04 Z" fill="#000000" fill-rule="evenodd" fill-opacity="1" /><polyline clip-path="url(#clip803)" style="stroke:#009af9; stroke-width:8; stroke-opacity:1; fill:none" points="
  297.978,1314.55 480.603,1314.55 541.984,1314.55 569.051,1314.55 1345.53,1314.55 1394.4,1314.55 1617.09,1314.55 1678.94,1314.55 1759.56,1314.55 2235.28,1314.55 
  2277.01,1314.55 2292.91,1314.55 
  "/>
<polyline clip-path="url(#clip803)" style="stroke:#e26f46; stroke-width:0; stroke-opacity:1; fill:none" points="
  297.978,1404.89 480.603,1367.81 541.984,1343.26 569.051,1275.75 
  "/>
<circle clip-path="url(#clip803)" cx="297.978" cy="1404.89" r="14" fill="#ff0000" fill-rule="evenodd" fill-opacity="1" stroke="#000000" stroke-opacity="1" stroke-width="3.2"/>
<circle clip-path="url(#clip803)" cx="480.603" cy="1367.81" r="14" fill="#ff0000" fill-rule="evenodd" fill-opacity="1" stroke="#000000" stroke-opacity="1" stroke-width="3.2"/>
<circle clip-path="url(#clip803)" cx="541.984" cy="1343.26" r="14" fill="#ff0000" fill-rule="evenodd" fill-opacity="1" stroke="#000000" stroke-opacity="1" stroke-width="3.2"/>
<circle clip-path="url(#clip803)" cx="569.051" cy="1275.75" r="14" fill="#ff0000" fill-rule="evenodd" fill-opacity="1" stroke="#000000" stroke-opacity="1" stroke-width="3.2"/>
<polyline clip-path="url(#clip803)" style="stroke:#3da44d; stroke-width:0; stroke-opacity:1; fill:none" points="
  1345.53,1273.97 1394.4,1267.26 1617.09,1242.93 1678.94,1220.99 1759.56,1144.72 2235.28,1119.6 2277.01,1063.69 2292.91,988.651 
  "/>
<circle clip-path="url(#clip803)" cx="1345.53" cy="1273.97" r="14" fill="#0000ff" fill-rule="evenodd" fill-opacity="1" stroke="#000000" stroke-opacity="1" stroke-width="3.2"/>
<circle clip-path="url(#clip803)" cx="1394.4" cy="1267.26" r="14" fill="#0000ff" fill-rule="evenodd" fill-opacity="1" stroke="#000000" stroke-opacity="1" stroke-width="3.2"/>
<circle clip-path="url(#clip803)" cx="1617.09" cy="1242.93" r="14" fill="#0000ff" fill-rule="evenodd" fill-opacity="1" stroke="#000000" stroke-opacity="1" stroke-width="3.2"/>
<circle clip-path="url(#clip803)" cx="1678.94" cy="1220.99" r="14" fill="#0000ff" fill-rule="evenodd" fill-opacity="1" stroke="#000000" stroke-opacity="1" stroke-width="3.2"/>
<circle clip-path="url(#clip803)" cx="1759.56" cy="1144.72" r="14" fill="#0000ff" fill-rule="evenodd" fill-opacity="1" stroke="#000000" stroke-opacity="1" stroke-width="3.2"/>
<circle clip-path="url(#clip803)" cx="2235.28" cy="1119.6" r="14" fill="#0000ff" fill-rule="evenodd" fill-opacity="1" stroke="#000000" stroke-opacity="1" stroke-width="3.2"/>
<circle clip-path="url(#clip803)" cx="2277.01" cy="1063.69" r="14" fill="#0000ff" fill-rule="evenodd" fill-opacity="1" stroke="#000000" stroke-opacity="1" stroke-width="3.2"/>
<circle clip-path="url(#clip803)" cx="2292.91" cy="988.651" r="14" fill="#0000ff" fill-rule="evenodd" fill-opacity="1" stroke="#000000" stroke-opacity="1" stroke-width="3.2"/>
<polyline clip-path="url(#clip803)" style="stroke:#808080; stroke-width:12; stroke-opacity:0.5; fill:none" points="
  297.978,1423.18 297.978,1404.89 
  "/>
<polyline clip-path="url(#clip803)" style="stroke:#808080; stroke-width:12; stroke-opacity:0.5; fill:none" points="
  480.603,1423.18 480.603,1367.81 
  "/>
<polyline clip-path="url(#clip803)" style="stroke:#808080; stroke-width:12; stroke-opacity:0.5; fill:none" points="
  541.984,1423.18 541.984,1343.26 
  "/>
<polyline clip-path="url(#clip803)" style="stroke:#808080; stroke-width:12; stroke-opacity:0.5; fill:none" points="
  569.051,1423.18 569.051,1275.75 
  "/>
<polyline clip-path="url(#clip803)" style="stroke:#808080; stroke-width:12; stroke-opacity:0.5; fill:none" points="
  1345.53,1423.18 1345.53,1273.97 
  "/>
<polyline clip-path="url(#clip803)" style="stroke:#808080; stroke-width:12; stroke-opacity:0.5; fill:none" points="
  1394.4,1423.18 1394.4,1267.26 
  "/>
<polyline clip-path="url(#clip803)" style="stroke:#808080; stroke-width:12; stroke-opacity:0.5; fill:none" points="
  1617.09,1423.18 1617.09,1242.93 
  "/>
<polyline clip-path="url(#clip803)" style="stroke:#808080; stroke-width:12; stroke-opacity:0.5; fill:none" points="
  1678.94,1423.18 1678.94,1220.99 
  "/>
<polyline clip-path="url(#clip803)" style="stroke:#808080; stroke-width:12; stroke-opacity:0.5; fill:none" points="
  1759.56,1423.18 1759.56,1144.72 
  "/>
<polyline clip-path="url(#clip803)" style="stroke:#808080; stroke-width:12; stroke-opacity:0.5; fill:none" points="
  2235.28,1423.18 2235.28,1119.6 
  "/>
<polyline clip-path="url(#clip803)" style="stroke:#808080; stroke-width:12; stroke-opacity:0.5; fill:none" points="
  2277.01,1423.18 2277.01,1063.69 
  "/>
<polyline clip-path="url(#clip803)" style="stroke:#808080; stroke-width:12; stroke-opacity:0.5; fill:none" points="
  2292.91,1423.18 2292.91,988.651 
  "/>
</svg>
